<svg width="186" height="58" viewBox="0 0 186 58" fill="none" xmlns="http://www.w3.org/2000/svg">
<g filter="url(#filter0_d_4_43)">
<path d="M178.638 30.644C178.914 30.644 179.178 30.661 179.429 30.6967L179.428 30.6977C179.685 30.7329 179.937 30.7845 180.183 30.8549L180.553 30.9604L180.546 31.3442L180.481 35.1206L180.472 35.7377L179.869 35.5991C179.609 35.5391 179.326 35.4885 179.019 35.4477C178.716 35.4073 178.451 35.3881 178.222 35.3881C177.473 35.3882 176.882 35.5696 176.417 35.9028L176.416 35.9038C175.96 36.2284 175.592 36.7239 175.331 37.4292C175.08 38.1369 174.946 39.0346 174.946 40.1362V47.4516H170.17V30.8676H174.946V32.5551C175.185 32.2449 175.444 31.9707 175.725 31.7358C176.587 31.0158 177.563 30.644 178.638 30.644Z" stroke="white" shape-rendering="crispEdges"/>
</g>
<g filter="url(#filter1_d_4_43)">
<path d="M161.093 30.484C162.398 30.484 163.553 30.7486 164.537 31.2994H164.536C165.511 31.8283 166.298 32.5553 166.887 33.4772L167.1 33.8209C167.577 34.6364 167.903 35.5399 168.081 36.527C168.283 37.6504 168.294 38.8051 168.115 39.9869L168.052 40.4117H158.092C158.133 41.0156 158.245 41.5507 158.424 42.0211C158.66 42.6143 158.995 43.0609 159.421 43.3815L159.585 43.4899C159.98 43.7289 160.475 43.8599 161.093 43.86C161.75 43.86 162.266 43.7089 162.668 43.4352C163.045 43.1782 163.302 42.7879 163.419 42.2125L163.5 41.8121H168.303L168.211 42.3912C168.038 43.4727 167.626 44.436 166.975 45.2731L166.976 45.274C166.417 45.9961 165.713 46.5805 164.873 47.0289L164.5 47.2154C163.487 47.6759 162.347 47.9 161.093 47.9C159.679 47.9 158.377 47.5334 157.197 46.8004C156.019 46.0682 155.08 45.0468 154.381 43.7496L154.38 43.7477C153.673 42.426 153.329 40.897 153.329 39.1764C153.329 37.4065 153.666 35.8552 154.363 34.5416L154.365 34.5387C155.065 33.2397 156.006 32.231 157.19 31.5299C158.37 30.8315 159.674 30.484 161.093 30.484ZM161.157 34.4918C160.476 34.4918 159.932 34.6614 159.497 34.9742C159.045 35.2995 158.695 35.7455 158.45 36.3297C158.317 36.6482 158.219 36.9927 158.156 37.3639H163.697C163.683 37.2121 163.665 37.0591 163.64 36.9059L163.639 36.8961C163.571 36.4359 163.438 36.0211 163.242 35.6481C163.06 35.3022 162.803 35.0275 162.463 34.818L162.457 34.8141L162.45 34.8102C162.149 34.6119 161.73 34.4918 161.157 34.4918Z" stroke="white" shape-rendering="crispEdges"/>
</g>
<g filter="url(#filter2_d_4_43)">
<path d="M152.629 30.932V34.6527L152.514 34.7914L145.386 43.3802H152.629V47.4515H139.405V43.6947L139.525 43.5551L146.883 34.972H139.405V30.932H152.629Z" stroke="white" shape-rendering="crispEdges"/>
</g>
<g filter="url(#filter3_d_4_43)">
<path d="M134.532 26.804V30.9319H138.756V34.428H134.532V42.5042C134.532 43.0732 134.668 43.4074 134.851 43.5999C135.029 43.7875 135.333 43.9241 135.857 43.9241C136.191 43.9241 136.527 43.886 136.864 43.8089C137.214 43.729 137.622 43.6068 138.089 43.4407L138.631 43.2483L138.746 43.8118L139.29 46.4681L139.374 46.8792L138.983 47.0335C138.372 47.2735 137.775 47.4761 137.193 47.6409C136.581 47.8141 135.943 47.8997 135.28 47.8997C134.3 47.8997 133.387 47.7173 132.549 47.345L132.547 47.344C131.701 46.9629 131.019 46.3762 130.509 45.5931L130.506 45.5882C129.994 44.783 129.756 43.7866 129.756 42.6321V34.428H127.58V30.9319H129.756V26.804H134.532Z" stroke="white" shape-rendering="crispEdges"/>
</g>
<g filter="url(#filter4_d_4_43)">
<path d="M125.728 30.8682V47.4522H120.952V30.8682H125.728ZM123.34 23.668C124.159 23.668 124.865 23.899 125.396 24.4131C125.929 24.9185 126.176 25.5925 126.176 26.376C126.176 27.1756 125.933 27.8627 125.397 28.3711L125.391 28.375C124.859 28.8662 124.155 29.084 123.34 29.084C122.517 29.084 121.806 28.8674 121.273 28.375L121.263 28.3662C120.74 27.857 120.504 27.1717 120.504 26.376C120.504 25.5966 120.743 24.9242 121.263 24.418C121.796 23.8991 122.51 23.668 123.34 23.668Z" stroke="white" shape-rendering="crispEdges"/>
</g>
<g filter="url(#filter5_d_4_43)">
<path d="M111.555 30.484C112.86 30.484 114.015 30.7486 115 31.2994H114.999C115.974 31.8283 116.76 32.5553 117.349 33.4772L117.563 33.8209C118.04 34.6364 118.366 35.5399 118.543 36.527C118.746 37.6504 118.756 38.8051 118.578 39.9869L118.514 40.4117H108.554C108.595 41.0156 108.707 41.5507 108.886 42.0211C109.123 42.6143 109.457 43.0609 109.883 43.3815L110.047 43.4899C110.442 43.7289 110.937 43.8599 111.555 43.86C112.212 43.86 112.728 43.7089 113.13 43.4352C113.508 43.1782 113.764 42.7879 113.881 42.2125L113.962 41.8121H118.765L118.673 42.3912C118.501 43.4727 118.089 44.436 117.438 45.2731L117.439 45.274C116.88 45.9961 116.176 46.5805 115.335 47.0289L114.962 47.2154C113.949 47.6759 112.81 47.9 111.555 47.9C110.142 47.9 108.839 47.5334 107.66 46.8004C106.481 46.0682 105.543 45.0468 104.843 43.7496L104.842 43.7477C104.136 42.426 103.792 40.897 103.791 39.1764C103.791 37.4065 104.129 35.8552 104.826 34.5416L104.828 34.5387C105.528 33.2397 106.469 32.231 107.653 31.5299C108.832 30.8315 110.136 30.484 111.555 30.484ZM111.62 34.4918C110.938 34.4918 110.394 34.6614 109.959 34.9742C109.508 35.2995 109.158 35.7455 108.913 36.3297C108.779 36.6482 108.682 36.9927 108.619 37.3639H114.16C114.145 37.2121 114.128 37.0591 114.102 36.9059L114.101 36.8961C114.034 36.4359 113.9 36.0211 113.705 35.6481C113.523 35.3022 113.266 35.0275 112.925 34.818L112.919 34.8141L112.913 34.8102C112.611 34.6119 112.193 34.4918 111.62 34.4918Z" stroke="white" shape-rendering="crispEdges"/>
</g>
<g filter="url(#filter6_d_4_43)">
<path d="M91.9836 24.5V31.9316C92.1956 31.7343 92.4228 31.556 92.6653 31.3975C93.6004 30.7823 94.696 30.4844 95.9309 30.4844C97.2817 30.4844 98.517 30.846 99.6233 31.5703H99.6242C100.743 32.2853 101.621 33.3013 102.265 34.5977L102.385 34.8438C102.965 36.0863 103.247 37.5135 103.247 39.1123C103.247 40.8407 102.915 42.3775 102.233 43.708L102.232 43.707C101.566 45.0161 100.656 46.0518 99.4983 46.7969L99.4953 46.7988C98.3356 47.5337 97.0467 47.9004 95.6428 47.9004C94.5725 47.9003 93.585 47.5979 92.6926 46.999L92.6897 46.9971C92.1126 46.6046 91.6202 46.0918 91.2053 45.4697L90.6447 47.1133L90.5285 47.4521H87.2072V24.5H91.9836ZM95.0676 34.876C94.5244 34.876 94.0222 35.0082 93.5539 35.2744L93.5481 35.2783C93.0887 35.5305 92.7088 35.9019 92.4094 36.4072L92.4084 36.4062C92.133 36.8783 91.9836 37.4743 91.9836 38.2158V40.0723L91.9904 40.3301C92.0247 40.9192 92.1781 41.4261 92.4397 41.8623C92.7505 42.3803 93.1445 42.7769 93.6213 43.0625L93.8029 43.1611C94.2281 43.3738 94.6586 43.4755 95.0988 43.4756C95.7368 43.4756 96.2917 43.3023 96.7795 42.959C97.2736 42.6113 97.6731 42.12 97.9719 41.4648L97.9748 41.459L98.0822 41.2109C98.3165 40.6171 98.4396 39.9206 98.4397 39.1123C98.4397 38.2206 98.2837 37.4692 97.9904 36.8447L97.9895 36.8418C97.6927 36.2005 97.2906 35.7208 96.7883 35.3828L96.7844 35.3809C96.2988 35.0481 95.7329 34.876 95.0676 34.876Z" stroke="white" shape-rendering="crispEdges"/>
</g>
<g filter="url(#filter7_d_4_43)">
<path d="M77.9686 30.484C80.019 30.484 81.6781 30.9354 82.8758 31.9078H82.8748C84.0708 32.8592 84.7043 34.0929 84.7401 35.5797L84.7528 36.0924H80.2371L80.1912 35.6441C80.1536 35.2832 79.9906 35.0072 79.6707 34.7887C79.3555 34.5734 78.8139 34.4284 77.9686 34.4283C77.2315 34.4283 76.7176 34.5812 76.3729 34.8297L76.3709 34.8307C76.0163 35.0839 75.908 35.3259 75.908 35.5602C75.9081 35.7637 75.9872 35.9559 76.2108 36.1529C76.4191 36.3365 76.7472 36.5169 77.2244 36.6774L77.4383 36.7447L77.4549 36.7496L77.4715 36.7555L81.1512 38.1315H81.1502C82.3842 38.5517 83.3805 39.104 84.1082 39.8082C84.8739 40.5491 85.2518 41.4934 85.2518 42.6002C85.2517 43.5428 84.9302 44.4237 84.3192 45.235L84.3201 45.2359C83.7182 46.0386 82.8849 46.678 81.8436 47.1647C80.7846 47.6596 79.5743 47.9 78.2244 47.9C76.688 47.9 75.3398 47.6921 74.1922 47.2604L74.1864 47.2574C73.05 46.8142 72.1465 46.1716 71.5047 45.316L71.5018 45.3131V45.3121C70.8561 44.4387 70.5359 43.4005 70.5242 42.2213L70.5194 41.7164H74.992L75.0116 42.1949C75.0377 42.8233 75.2733 43.2175 75.6854 43.4693C76.1543 43.7558 76.8359 43.9244 77.7762 43.9244C78.272 43.9244 78.6893 43.8511 79.0369 43.7174L79.0408 43.7154C79.4074 43.5779 79.6599 43.4022 79.827 43.2047C79.9903 43.0116 80.0603 42.8151 80.0604 42.6002C80.0604 42.3034 79.961 42.1151 79.7762 41.9733L79.7684 41.9674L79.7616 41.9615C79.5285 41.7686 79.1023 41.5572 78.4295 41.3502L78.4178 41.3463L78.4071 41.3424L75.0155 40.1266C73.7475 39.6706 72.7354 39.0561 72.0145 38.2643C71.2777 37.4549 70.908 36.4806 70.908 35.3678C70.9081 33.9663 71.5139 32.8202 72.6668 31.9547L72.9041 31.7858C74.2077 30.9015 75.9112 30.484 77.9686 30.484Z" stroke="white" shape-rendering="crispEdges"/>
</g>
<g filter="url(#filter8_d_4_43)">
<path d="M61.8094 30.484C63.2067 30.484 64.4508 30.711 65.5291 31.1813H65.5282C66.6209 31.6469 67.4803 32.375 68.0907 33.3609C68.7077 34.3578 68.9979 35.6034 68.9979 37.0641V47.4518H64.7606L64.7059 47.0152L64.5663 45.9225C64.2364 46.3155 63.8561 46.6629 63.4227 46.9615C62.5113 47.597 61.3978 47.9 60.1131 47.9C58.7254 47.9 57.5274 47.6613 56.5418 47.1568L56.535 47.1539C55.5799 46.6476 54.8398 45.9737 54.3387 45.1266C53.8449 44.2917 53.5975 43.3821 53.5975 42.4078C53.5975 41.3357 53.8795 40.4018 54.4706 39.6383V39.6373C55.0624 38.8763 55.8854 38.3239 56.909 37.9674C57.9243 37.6031 59.1026 37.4283 60.4334 37.4283C61.3006 37.4283 62.1233 37.4935 62.9002 37.6266C63.3424 37.7013 63.7831 37.7911 64.2215 37.8941V36.9361C64.2215 35.9019 64.006 35.2376 63.6698 34.8453L63.6659 34.8404C63.3657 34.4819 62.7987 34.2359 61.8094 34.2359C61.2498 34.236 60.7881 34.3194 60.4129 34.4713C60.0404 34.6221 59.7749 34.8282 59.5926 35.0807C59.4284 35.3121 59.3338 35.6125 59.3338 36.0084V36.5084H54.2059V36.0084C54.2059 34.7544 54.5086 33.6837 55.1571 32.8395C55.7949 31.9983 56.6981 31.4022 57.8319 31.0358C58.9616 30.6634 60.291 30.484 61.8094 30.484ZM61.201 40.732C60.3633 40.7321 59.7203 40.8872 59.242 41.1617C58.8534 41.385 58.6298 41.7579 58.6297 42.4078C58.6297 42.8271 58.7919 43.1915 59.1649 43.5221C59.5001 43.8192 60.099 44.0201 61.0731 44.0201C61.7778 44.0201 62.3429 43.8663 62.7918 43.5846C63.2705 43.2842 63.6173 42.9184 63.8495 42.4899L63.8534 42.483C64.074 42.0908 64.1901 41.7137 64.2157 41.3483L64.2215 41.192V41.1168C63.8603 41.0262 63.4789 40.9482 63.077 40.8863C62.4053 40.783 61.7799 40.732 61.201 40.732Z" stroke="white" shape-rendering="crispEdges"/>
</g>
<g filter="url(#filter9_d_4_43)">
<path d="M40.2836 25.684V33.4721L47.6156 25.8373L47.7631 25.684H54.3481L53.518 26.5336L44.7006 35.5561L54.1166 46.6283L54.8178 47.4516H48.6381L48.4887 47.2729L41.4653 38.8666L40.2836 40.0756V47.4516H35.476V25.684H40.2836Z" stroke="white" shape-rendering="crispEdges"/>
</g>
<g filter="url(#filter10_d_4_43)">
<path d="M122.065 0.5V23.4521H117.288V0.5H122.065Z" stroke="white" shape-rendering="crispEdges"/>
</g>
<g filter="url(#filter11_d_4_43)">
<path d="M107.166 6.48401C108.563 6.48401 109.807 6.71102 110.885 7.18127H110.884C111.977 7.64693 112.837 8.37499 113.447 9.36096C114.064 10.3578 114.354 11.6034 114.354 13.0641V23.4518H110.117L110.062 23.0153L109.923 21.9225C109.593 22.3156 109.212 22.663 108.779 22.9615C107.868 23.5971 106.754 23.9 105.469 23.9C104.082 23.9 102.884 23.6613 101.898 23.1569L101.891 23.1539C100.936 22.6476 100.196 21.9737 99.695 21.1266C99.2011 20.2917 98.9538 19.3821 98.9538 18.4078C98.9538 17.3358 99.2357 16.4018 99.8268 15.6383V15.6373C100.419 14.8763 101.242 14.324 102.265 13.9674C103.281 13.6032 104.459 13.4284 105.79 13.4283C106.657 13.4283 107.48 13.4935 108.256 13.6266C108.699 13.7013 109.139 13.7911 109.578 13.8942V12.9362C109.578 11.9019 109.362 11.2377 109.026 10.8453L109.022 10.8405C108.722 10.482 108.155 10.236 107.166 10.236C106.606 10.236 106.144 10.3195 105.769 10.4713C105.397 10.6221 105.131 10.8282 104.949 11.0807C104.785 11.3121 104.69 11.6126 104.69 12.0084V12.5084H99.5621V12.0084C99.5621 10.7545 99.8649 9.68367 100.513 8.83948C101.151 7.99835 102.054 7.40224 103.188 7.03577C104.318 6.66344 105.647 6.48402 107.166 6.48401ZM106.557 16.7321C105.72 16.7321 105.077 16.8872 104.598 17.1617C104.21 17.385 103.986 17.7579 103.986 18.4078C103.986 18.8271 104.148 19.1915 104.521 19.5221C104.856 19.8192 105.455 20.0201 106.429 20.0201C107.134 20.0201 107.699 19.8663 108.148 19.5846C108.627 19.2843 108.974 18.9184 109.206 18.4899L109.21 18.483C109.43 18.0909 109.546 17.7138 109.572 17.3483L109.578 17.192V17.1168C109.217 17.0262 108.835 16.9482 108.433 16.8864C107.761 16.783 107.136 16.7321 106.557 16.7321Z" stroke="white" shape-rendering="crispEdges"/>
</g>
<g filter="url(#filter12_d_4_43)">
<path d="M91.2206 6.48401C92.284 6.48405 93.241 6.65724 94.081 7.01721H94.0819C94.9162 7.36007 95.6348 7.83298 96.2294 8.43811C96.8135 9.02221 97.2752 9.67905 97.6103 10.4069C97.9394 11.1218 98.1519 11.8485 98.244 12.5856L98.3124 13.1344L97.7607 13.1481L93.953 13.2438L93.5526 13.2535L93.455 12.8649C93.3052 12.2661 93.0297 11.7869 92.6347 11.4098L92.6308 11.4059C92.2795 11.0628 91.8146 10.8756 91.1884 10.8756C90.68 10.8756 90.2023 11.0172 89.746 11.3092L89.7401 11.3131C89.3063 11.5821 88.9258 12.0154 88.6161 12.652C88.3273 13.2668 88.1679 14.0999 88.1679 15.1764C88.1679 16.1939 88.3159 17.0091 88.5878 17.6412L88.7001 17.8717C88.9709 18.3883 89.3035 18.769 89.6903 19.0328C90.1396 19.3286 90.6349 19.4762 91.1884 19.4762C92.0792 19.4762 92.6157 19.2622 92.9198 18.9449C93.2522 18.5873 93.4403 18.0952 93.4403 17.4156V16.9156H98.248V17.4156C98.248 18.5936 97.9782 19.6805 97.4335 20.6656C96.8839 21.6597 96.0785 22.4498 95.0331 23.0358L95.0292 23.0387C93.9675 23.622 92.6903 23.9 91.2206 23.9C89.8283 23.9 88.5284 23.5394 87.331 22.8209L87.3261 22.818C86.1389 22.0874 85.1806 21.0681 84.4491 19.774L84.4462 19.7692C83.7162 18.4459 83.3603 16.9095 83.3603 15.1764C83.3603 13.3528 83.714 11.7753 84.4482 10.4674L84.4491 10.4664C85.1822 9.1694 86.1455 8.17143 87.3417 7.4928L87.3437 7.49182C88.5394 6.82004 89.8348 6.48401 91.2206 6.48401Z" stroke="white" shape-rendering="crispEdges"/>
</g>
<g filter="url(#filter13_d_4_43)">
<path d="M75.5936 6.48401C77.644 6.48406 79.3031 6.93542 80.5008 7.90784H80.4998C81.6958 8.85917 82.3293 10.0929 82.3651 11.5797L82.3778 12.0924H77.8621L77.8162 11.6442C77.7786 11.2832 77.6156 11.0072 77.2957 10.7887C76.9805 10.5734 76.4389 10.4284 75.5936 10.4283C74.8565 10.4283 74.3426 10.5812 73.9979 10.8297L73.9959 10.8307C73.6413 11.084 73.533 11.3259 73.533 11.5602C73.5331 11.7637 73.6122 11.9559 73.8358 12.153C74.0441 12.3365 74.3722 12.517 74.8494 12.6774L75.0633 12.7448L75.0799 12.7496L75.0965 12.7555L78.7762 14.1315H78.7752C80.0092 14.5517 81.0055 15.104 81.7332 15.8082C82.4989 16.5492 82.8768 17.4934 82.8768 18.6002C82.8767 19.5428 82.5552 20.4237 81.9442 21.235L81.9451 21.236C81.3432 22.0386 80.5099 22.678 79.4686 23.1647C78.4096 23.6596 77.1993 23.9 75.8494 23.9C74.313 23.9 72.9648 23.6921 71.8172 23.2604L71.8114 23.2574C70.675 22.8142 69.7715 22.1717 69.1297 21.316L69.1268 21.3131V21.3121C68.4811 20.4388 68.1609 19.4005 68.1492 18.2213L68.1444 17.7164H72.617L72.6366 18.1949C72.6627 18.8233 72.8983 19.2175 73.3104 19.4694C73.7793 19.7558 74.4609 19.9244 75.4012 19.9244C75.897 19.9244 76.3143 19.8511 76.6619 19.7174L76.6658 19.7155C77.0324 19.578 77.2849 19.4022 77.452 19.2047C77.6153 19.0116 77.6853 18.8151 77.6854 18.6002C77.6854 18.3034 77.586 18.1151 77.4012 17.9733L77.3934 17.9674L77.3866 17.9615C77.1535 17.7687 76.7273 17.5573 76.0545 17.3502L76.0428 17.3463L76.0321 17.3424L72.6405 16.1266C71.3725 15.6706 70.3604 15.0561 69.6395 14.2643C68.9027 13.4549 68.533 12.4806 68.533 11.3678C68.5331 9.96635 69.1389 8.82022 70.2918 7.95471L70.5291 7.78577C71.8327 6.90149 73.5362 6.48401 75.5936 6.48401Z" stroke="white" shape-rendering="crispEdges"/>
</g>
<g filter="url(#filter14_d_4_43)">
<path d="M59.4344 6.48401C60.8317 6.48401 62.0758 6.71102 63.1541 7.18127H63.1532C64.2459 7.64693 65.1053 8.37499 65.7157 9.36096C66.3327 10.3578 66.6229 11.6034 66.6229 13.0641V23.4518H62.3856L62.3309 23.0153L62.1913 21.9225C61.8614 22.3156 61.4811 22.663 61.0477 22.9615C60.1363 23.5971 59.0228 23.9 57.7381 23.9C56.3504 23.9 55.1524 23.6613 54.1668 23.1569L54.16 23.1539C53.2049 22.6476 52.4648 21.9737 51.9637 21.1266C51.4699 20.2917 51.2225 19.3821 51.2225 18.4078C51.2225 17.3358 51.5045 16.4018 52.0956 15.6383V15.6373C52.6874 14.8763 53.5104 14.324 54.534 13.9674C55.5493 13.6032 56.7276 13.4284 58.0584 13.4283C58.9256 13.4283 59.7483 13.4935 60.5252 13.6266C60.9674 13.7013 61.4081 13.7911 61.8465 13.8942V12.9362C61.8465 11.9019 61.631 11.2377 61.2948 10.8453L61.2909 10.8405C60.9907 10.482 60.4237 10.236 59.4344 10.236C58.8748 10.236 58.4131 10.3195 58.0379 10.4713C57.6654 10.6221 57.3999 10.8282 57.2176 11.0807C57.0534 11.3121 56.9588 11.6126 56.9588 12.0084V12.5084H51.8309V12.0084C51.8309 10.7545 52.1336 9.68367 52.7821 8.83948C53.4199 7.99835 54.3231 7.40224 55.4569 7.03577C56.5866 6.66344 57.916 6.48402 59.4344 6.48401ZM58.826 16.7321C57.9883 16.7321 57.3453 16.8872 56.867 17.1617C56.4784 17.385 56.2548 17.7579 56.2547 18.4078C56.2547 18.8271 56.4169 19.1915 56.7899 19.5221C57.1251 19.8192 57.724 20.0201 58.6981 20.0201C59.4028 20.0201 59.9679 19.8663 60.4168 19.5846C60.8955 19.2843 61.2423 18.9184 61.4745 18.4899L61.4784 18.483C61.699 18.0909 61.8151 17.7138 61.8407 17.3483L61.8465 17.192V17.1168C61.4853 17.0262 61.1039 16.9482 60.702 16.8864C60.0303 16.783 59.4049 16.7321 58.826 16.7321Z" stroke="white" shape-rendering="crispEdges"/>
</g>
<g filter="url(#filter15_d_4_43)">
<path d="M43.2081 1.68401C45.623 1.68403 47.5741 2.28002 48.9943 3.53654L49.256 3.77971C50.521 5.02733 51.132 6.72404 51.132 8.80803C51.132 11.0113 50.4354 12.7816 48.9943 14.0473C47.5741 15.3039 45.623 15.8998 43.2081 15.8998H40.1876V23.4516H35.38V1.68401H43.2081ZM40.1876 11.6039H43.2081C44.2966 11.6039 45.0312 11.3182 45.504 10.8285C46.0006 10.3143 46.2599 9.65485 46.2599 8.80803C46.2599 7.93665 45.9985 7.25982 45.5011 6.73576C45.0278 6.2374 44.2941 5.9477 43.2081 5.94768H40.1876V11.6039Z" stroke="white" shape-rendering="crispEdges"/>
</g>
<g filter="url(#filter16_d_4_43)">
<path d="M4.5 12.5684L4.50879 11.9395C4.59861 8.83729 5.36334 6.33583 6.85645 4.48828L7.16602 4.125C8.7508 2.36551 10.9187 1.50008 13.6113 1.5C16.4577 1.5 18.719 2.48551 20.3252 4.48828C21.918 6.45909 22.6816 9.17392 22.6816 12.5684L22.6816 17.0791L32.5 17.0791V23.5L4.5 23.5L4.5 12.5684ZM17.3965 17.0791V12.5684C17.3965 10.9713 17.0122 9.85513 16.3271 9.13086C15.6241 8.38757 14.7321 8.01172 13.6113 8.01172C12.4595 8.0118 11.5467 8.39012 10.8311 9.13379C10.134 9.85822 9.74316 10.9734 9.74316 12.5684L9.74316 17.0791L17.3965 17.0791Z" stroke="#3DCFB6" shape-rendering="crispEdges"/>
</g>
<g filter="url(#filter17_d_4_43)">
<path d="M32.5 28.6455H22.1182L32.3535 38.8623L32.5 39.0088L32.5 47.4424L31.6436 46.5723L19.8232 34.5654L5.33106 47.375L4.5 48.1094V40.1992L4.67188 40.0498L15.75 30.4287L13.9941 28.6455L4.5 28.6455V22.5L32.5 22.5V28.6455Z" stroke="#3DCFB6" shape-rendering="crispEdges"/>
</g>
<defs>
<filter id="filter0_d_4_43" x="165.67" y="30.144" width="19.3889" height="25.808" filterUnits="userSpaceOnUse" color-interpolation-filters="sRGB">
<feFlood flood-opacity="0" result="BackgroundImageFix"/>
<feColorMatrix in="SourceAlpha" type="matrix" values="0 0 0 0 0 0 0 0 0 0 0 0 0 0 0 0 0 0 127 0" result="hardAlpha"/>
<feOffset dy="4"/>
<feGaussianBlur stdDeviation="2"/>
<feComposite in2="hardAlpha" operator="out"/>
<feColorMatrix type="matrix" values="0 0 0 0 0 0 0 0 0 0 0 0 0 0 0 0 0 0 0.25 0"/>
<feBlend mode="normal" in2="BackgroundImageFix" result="effect1_dropShadow_4_43"/>
<feBlend mode="normal" in="SourceGraphic" in2="effect1_dropShadow_4_43" result="shape"/>
</filter>
<filter id="filter1_d_4_43" x="148.829" y="29.984" width="24.0602" height="26.416" filterUnits="userSpaceOnUse" color-interpolation-filters="sRGB">
<feFlood flood-opacity="0" result="BackgroundImageFix"/>
<feColorMatrix in="SourceAlpha" type="matrix" values="0 0 0 0 0 0 0 0 0 0 0 0 0 0 0 0 0 0 127 0" result="hardAlpha"/>
<feOffset dy="4"/>
<feGaussianBlur stdDeviation="2"/>
<feComposite in2="hardAlpha" operator="out"/>
<feColorMatrix type="matrix" values="0 0 0 0 0 0 0 0 0 0 0 0 0 0 0 0 0 0 0.25 0"/>
<feBlend mode="normal" in2="BackgroundImageFix" result="effect1_dropShadow_4_43"/>
<feBlend mode="normal" in="SourceGraphic" in2="effect1_dropShadow_4_43" result="shape"/>
</filter>
<filter id="filter2_d_4_43" x="134.905" y="30.432" width="22.224" height="25.52" filterUnits="userSpaceOnUse" color-interpolation-filters="sRGB">
<feFlood flood-opacity="0" result="BackgroundImageFix"/>
<feColorMatrix in="SourceAlpha" type="matrix" values="0 0 0 0 0 0 0 0 0 0 0 0 0 0 0 0 0 0 127 0" result="hardAlpha"/>
<feOffset dy="4"/>
<feGaussianBlur stdDeviation="2"/>
<feComposite in2="hardAlpha" operator="out"/>
<feColorMatrix type="matrix" values="0 0 0 0 0 0 0 0 0 0 0 0 0 0 0 0 0 0 0.25 0"/>
<feBlend mode="normal" in2="BackgroundImageFix" result="effect1_dropShadow_4_43"/>
<feBlend mode="normal" in="SourceGraphic" in2="effect1_dropShadow_4_43" result="shape"/>
</filter>
<filter id="filter3_d_4_43" x="123.08" y="26.304" width="20.8684" height="30.096" filterUnits="userSpaceOnUse" color-interpolation-filters="sRGB">
<feFlood flood-opacity="0" result="BackgroundImageFix"/>
<feColorMatrix in="SourceAlpha" type="matrix" values="0 0 0 0 0 0 0 0 0 0 0 0 0 0 0 0 0 0 127 0" result="hardAlpha"/>
<feOffset dy="4"/>
<feGaussianBlur stdDeviation="2"/>
<feComposite in2="hardAlpha" operator="out"/>
<feColorMatrix type="matrix" values="0 0 0 0 0 0 0 0 0 0 0 0 0 0 0 0 0 0 0.25 0"/>
<feBlend mode="normal" in2="BackgroundImageFix" result="effect1_dropShadow_4_43"/>
<feBlend mode="normal" in="SourceGraphic" in2="effect1_dropShadow_4_43" result="shape"/>
</filter>
<filter id="filter4_d_4_43" x="116.004" y="23.168" width="14.672" height="32.784" filterUnits="userSpaceOnUse" color-interpolation-filters="sRGB">
<feFlood flood-opacity="0" result="BackgroundImageFix"/>
<feColorMatrix in="SourceAlpha" type="matrix" values="0 0 0 0 0 0 0 0 0 0 0 0 0 0 0 0 0 0 127 0" result="hardAlpha"/>
<feOffset dy="4"/>
<feGaussianBlur stdDeviation="2"/>
<feComposite in2="hardAlpha" operator="out"/>
<feColorMatrix type="matrix" values="0 0 0 0 0 0 0 0 0 0 0 0 0 0 0 0 0 0 0.25 0"/>
<feBlend mode="normal" in2="BackgroundImageFix" result="effect1_dropShadow_4_43"/>
<feBlend mode="normal" in="SourceGraphic" in2="effect1_dropShadow_4_43" result="shape"/>
</filter>
<filter id="filter5_d_4_43" x="99.2915" y="29.984" width="24.0602" height="26.416" filterUnits="userSpaceOnUse" color-interpolation-filters="sRGB">
<feFlood flood-opacity="0" result="BackgroundImageFix"/>
<feColorMatrix in="SourceAlpha" type="matrix" values="0 0 0 0 0 0 0 0 0 0 0 0 0 0 0 0 0 0 127 0" result="hardAlpha"/>
<feOffset dy="4"/>
<feGaussianBlur stdDeviation="2"/>
<feComposite in2="hardAlpha" operator="out"/>
<feColorMatrix type="matrix" values="0 0 0 0 0 0 0 0 0 0 0 0 0 0 0 0 0 0 0.25 0"/>
<feBlend mode="normal" in2="BackgroundImageFix" result="effect1_dropShadow_4_43"/>
<feBlend mode="normal" in="SourceGraphic" in2="effect1_dropShadow_4_43" result="shape"/>
</filter>
<filter id="filter6_d_4_43" x="82.7072" y="24" width="25.04" height="32.4" filterUnits="userSpaceOnUse" color-interpolation-filters="sRGB">
<feFlood flood-opacity="0" result="BackgroundImageFix"/>
<feColorMatrix in="SourceAlpha" type="matrix" values="0 0 0 0 0 0 0 0 0 0 0 0 0 0 0 0 0 0 127 0" result="hardAlpha"/>
<feOffset dy="4"/>
<feGaussianBlur stdDeviation="2"/>
<feComposite in2="hardAlpha" operator="out"/>
<feColorMatrix type="matrix" values="0 0 0 0 0 0 0 0 0 0 0 0 0 0 0 0 0 0 0.25 0"/>
<feBlend mode="normal" in2="BackgroundImageFix" result="effect1_dropShadow_4_43"/>
<feBlend mode="normal" in="SourceGraphic" in2="effect1_dropShadow_4_43" result="shape"/>
</filter>
<filter id="filter7_d_4_43" x="66.0144" y="29.984" width="23.7379" height="26.416" filterUnits="userSpaceOnUse" color-interpolation-filters="sRGB">
<feFlood flood-opacity="0" result="BackgroundImageFix"/>
<feColorMatrix in="SourceAlpha" type="matrix" values="0 0 0 0 0 0 0 0 0 0 0 0 0 0 0 0 0 0 127 0" result="hardAlpha"/>
<feOffset dy="4"/>
<feGaussianBlur stdDeviation="2"/>
<feComposite in2="hardAlpha" operator="out"/>
<feColorMatrix type="matrix" values="0 0 0 0 0 0 0 0 0 0 0 0 0 0 0 0 0 0 0.25 0"/>
<feBlend mode="normal" in2="BackgroundImageFix" result="effect1_dropShadow_4_43"/>
<feBlend mode="normal" in="SourceGraphic" in2="effect1_dropShadow_4_43" result="shape"/>
</filter>
<filter id="filter8_d_4_43" x="49.0975" y="29.984" width="24.4" height="26.416" filterUnits="userSpaceOnUse" color-interpolation-filters="sRGB">
<feFlood flood-opacity="0" result="BackgroundImageFix"/>
<feColorMatrix in="SourceAlpha" type="matrix" values="0 0 0 0 0 0 0 0 0 0 0 0 0 0 0 0 0 0 127 0" result="hardAlpha"/>
<feOffset dy="4"/>
<feGaussianBlur stdDeviation="2"/>
<feComposite in2="hardAlpha" operator="out"/>
<feColorMatrix type="matrix" values="0 0 0 0 0 0 0 0 0 0 0 0 0 0 0 0 0 0 0.25 0"/>
<feBlend mode="normal" in2="BackgroundImageFix" result="effect1_dropShadow_4_43"/>
<feBlend mode="normal" in="SourceGraphic" in2="effect1_dropShadow_4_43" result="shape"/>
</filter>
<filter id="filter9_d_4_43" x="30.976" y="25.184" width="28.9231" height="30.768" filterUnits="userSpaceOnUse" color-interpolation-filters="sRGB">
<feFlood flood-opacity="0" result="BackgroundImageFix"/>
<feColorMatrix in="SourceAlpha" type="matrix" values="0 0 0 0 0 0 0 0 0 0 0 0 0 0 0 0 0 0 127 0" result="hardAlpha"/>
<feOffset dy="4"/>
<feGaussianBlur stdDeviation="2"/>
<feComposite in2="hardAlpha" operator="out"/>
<feColorMatrix type="matrix" values="0 0 0 0 0 0 0 0 0 0 0 0 0 0 0 0 0 0 0.25 0"/>
<feBlend mode="normal" in2="BackgroundImageFix" result="effect1_dropShadow_4_43"/>
<feBlend mode="normal" in="SourceGraphic" in2="effect1_dropShadow_4_43" result="shape"/>
</filter>
<filter id="filter10_d_4_43" x="112.788" y="0" width="13.776" height="31.952" filterUnits="userSpaceOnUse" color-interpolation-filters="sRGB">
<feFlood flood-opacity="0" result="BackgroundImageFix"/>
<feColorMatrix in="SourceAlpha" type="matrix" values="0 0 0 0 0 0 0 0 0 0 0 0 0 0 0 0 0 0 127 0" result="hardAlpha"/>
<feOffset dy="4"/>
<feGaussianBlur stdDeviation="2"/>
<feComposite in2="hardAlpha" operator="out"/>
<feColorMatrix type="matrix" values="0 0 0 0 0 0 0 0 0 0 0 0 0 0 0 0 0 0 0.25 0"/>
<feBlend mode="normal" in2="BackgroundImageFix" result="effect1_dropShadow_4_43"/>
<feBlend mode="normal" in="SourceGraphic" in2="effect1_dropShadow_4_43" result="shape"/>
</filter>
<filter id="filter11_d_4_43" x="94.4538" y="5.98401" width="24.4" height="26.416" filterUnits="userSpaceOnUse" color-interpolation-filters="sRGB">
<feFlood flood-opacity="0" result="BackgroundImageFix"/>
<feColorMatrix in="SourceAlpha" type="matrix" values="0 0 0 0 0 0 0 0 0 0 0 0 0 0 0 0 0 0 127 0" result="hardAlpha"/>
<feOffset dy="4"/>
<feGaussianBlur stdDeviation="2"/>
<feComposite in2="hardAlpha" operator="out"/>
<feColorMatrix type="matrix" values="0 0 0 0 0 0 0 0 0 0 0 0 0 0 0 0 0 0 0.25 0"/>
<feBlend mode="normal" in2="BackgroundImageFix" result="effect1_dropShadow_4_43"/>
<feBlend mode="normal" in="SourceGraphic" in2="effect1_dropShadow_4_43" result="shape"/>
</filter>
<filter id="filter12_d_4_43" x="78.8603" y="5.98401" width="24.0173" height="26.416" filterUnits="userSpaceOnUse" color-interpolation-filters="sRGB">
<feFlood flood-opacity="0" result="BackgroundImageFix"/>
<feColorMatrix in="SourceAlpha" type="matrix" values="0 0 0 0 0 0 0 0 0 0 0 0 0 0 0 0 0 0 127 0" result="hardAlpha"/>
<feOffset dy="4"/>
<feGaussianBlur stdDeviation="2"/>
<feComposite in2="hardAlpha" operator="out"/>
<feColorMatrix type="matrix" values="0 0 0 0 0 0 0 0 0 0 0 0 0 0 0 0 0 0 0.25 0"/>
<feBlend mode="normal" in2="BackgroundImageFix" result="effect1_dropShadow_4_43"/>
<feBlend mode="normal" in="SourceGraphic" in2="effect1_dropShadow_4_43" result="shape"/>
</filter>
<filter id="filter13_d_4_43" x="63.6394" y="5.98401" width="23.7379" height="26.416" filterUnits="userSpaceOnUse" color-interpolation-filters="sRGB">
<feFlood flood-opacity="0" result="BackgroundImageFix"/>
<feColorMatrix in="SourceAlpha" type="matrix" values="0 0 0 0 0 0 0 0 0 0 0 0 0 0 0 0 0 0 127 0" result="hardAlpha"/>
<feOffset dy="4"/>
<feGaussianBlur stdDeviation="2"/>
<feComposite in2="hardAlpha" operator="out"/>
<feColorMatrix type="matrix" values="0 0 0 0 0 0 0 0 0 0 0 0 0 0 0 0 0 0 0.25 0"/>
<feBlend mode="normal" in2="BackgroundImageFix" result="effect1_dropShadow_4_43"/>
<feBlend mode="normal" in="SourceGraphic" in2="effect1_dropShadow_4_43" result="shape"/>
</filter>
<filter id="filter14_d_4_43" x="46.7225" y="5.98401" width="24.4" height="26.416" filterUnits="userSpaceOnUse" color-interpolation-filters="sRGB">
<feFlood flood-opacity="0" result="BackgroundImageFix"/>
<feColorMatrix in="SourceAlpha" type="matrix" values="0 0 0 0 0 0 0 0 0 0 0 0 0 0 0 0 0 0 127 0" result="hardAlpha"/>
<feOffset dy="4"/>
<feGaussianBlur stdDeviation="2"/>
<feComposite in2="hardAlpha" operator="out"/>
<feColorMatrix type="matrix" values="0 0 0 0 0 0 0 0 0 0 0 0 0 0 0 0 0 0 0.25 0"/>
<feBlend mode="normal" in2="BackgroundImageFix" result="effect1_dropShadow_4_43"/>
<feBlend mode="normal" in="SourceGraphic" in2="effect1_dropShadow_4_43" result="shape"/>
</filter>
<filter id="filter15_d_4_43" x="30.88" y="1.18401" width="24.752" height="30.768" filterUnits="userSpaceOnUse" color-interpolation-filters="sRGB">
<feFlood flood-opacity="0" result="BackgroundImageFix"/>
<feColorMatrix in="SourceAlpha" type="matrix" values="0 0 0 0 0 0 0 0 0 0 0 0 0 0 0 0 0 0 127 0" result="hardAlpha"/>
<feOffset dy="4"/>
<feGaussianBlur stdDeviation="2"/>
<feComposite in2="hardAlpha" operator="out"/>
<feColorMatrix type="matrix" values="0 0 0 0 0 0 0 0 0 0 0 0 0 0 0 0 0 0 0.25 0"/>
<feBlend mode="normal" in2="BackgroundImageFix" result="effect1_dropShadow_4_43"/>
<feBlend mode="normal" in="SourceGraphic" in2="effect1_dropShadow_4_43" result="shape"/>
</filter>
<filter id="filter16_d_4_43" x="0" y="1" width="37" height="31" filterUnits="userSpaceOnUse" color-interpolation-filters="sRGB">
<feFlood flood-opacity="0" result="BackgroundImageFix"/>
<feColorMatrix in="SourceAlpha" type="matrix" values="0 0 0 0 0 0 0 0 0 0 0 0 0 0 0 0 0 0 127 0" result="hardAlpha"/>
<feOffset dy="4"/>
<feGaussianBlur stdDeviation="2"/>
<feComposite in2="hardAlpha" operator="out"/>
<feColorMatrix type="matrix" values="0 0 0 0 0 0 0 0 0 0 0 0 0 0 0 0 0 0 0.25 0"/>
<feBlend mode="normal" in2="BackgroundImageFix" result="effect1_dropShadow_4_43"/>
<feBlend mode="normal" in="SourceGraphic" in2="effect1_dropShadow_4_43" result="shape"/>
</filter>
<filter id="filter17_d_4_43" x="0" y="22" width="37" height="35.2186" filterUnits="userSpaceOnUse" color-interpolation-filters="sRGB">
<feFlood flood-opacity="0" result="BackgroundImageFix"/>
<feColorMatrix in="SourceAlpha" type="matrix" values="0 0 0 0 0 0 0 0 0 0 0 0 0 0 0 0 0 0 127 0" result="hardAlpha"/>
<feOffset dy="4"/>
<feGaussianBlur stdDeviation="2"/>
<feComposite in2="hardAlpha" operator="out"/>
<feColorMatrix type="matrix" values="0 0 0 0 0 0 0 0 0 0 0 0 0 0 0 0 0 0 0.25 0"/>
<feBlend mode="normal" in2="BackgroundImageFix" result="effect1_dropShadow_4_43"/>
<feBlend mode="normal" in="SourceGraphic" in2="effect1_dropShadow_4_43" result="shape"/>
</filter>
</defs>
</svg>
