<svg width="32" height="32" viewBox="0 0 32 32" fill="none" xmlns="http://www.w3.org/2000/svg">
<path d="M15.993 18.4445C17.5676 18.4445 18.844 17.1675 18.844 15.5923C18.844 14.0171 17.5676 12.7401 15.993 12.7401C14.4185 12.7401 13.1421 14.0171 13.1421 15.5923C13.1421 17.1675 14.4185 18.4445 15.993 18.4445Z" fill="#61DAFB"/>
<path d="M31.9861 15.5922C31.9861 13.3522 29.3577 11.4044 25.269 10.2357C26.2981 6.10352 25.9365 2.84787 23.9896 1.73483C22.0426 0.60787 19.0526 1.92961 15.993 4.87917C12.9335 1.9157 9.9435 0.60787 7.99652 1.73483C6.38331 2.667 5.78531 5.03222 6.32768 8.39917C6.42503 8.99744 6.5641 9.60961 6.71708 10.2496C2.62842 11.4183 0 13.3661 0 15.6061C0 17.8461 2.62842 19.78 6.71708 20.9627C6.5641 21.5887 6.42503 22.2148 6.32768 22.8131C5.78531 26.18 6.38331 28.5453 7.99652 29.4774C8.46936 29.7557 9.01173 29.8948 9.60973 29.8948C11.0282 29.8948 12.7388 29.1157 14.6023 27.5992C15.0613 27.2235 15.5341 26.7922 15.993 26.347C16.452 26.7922 16.9248 27.2235 17.3837 27.5992C19.2473 29.1157 20.9578 29.8948 22.3764 29.8948C22.9744 29.8948 23.5167 29.7557 23.9896 29.4774C25.6028 28.5453 26.2008 26.18 25.6723 22.8131C25.575 22.2148 25.4359 21.6027 25.2829 20.9627C29.3716 19.794 32 17.8461 32 15.6061L31.9861 15.5922ZM23.2942 2.93135C24.5458 3.65483 24.824 6.2983 23.92 9.88787C22.6128 9.58178 21.1804 9.35917 19.6645 9.22004C18.7884 7.98178 17.8705 6.85483 16.9665 5.867C19.0804 3.82178 21.0413 2.70874 22.3903 2.70874C22.7379 2.70874 23.0439 2.7783 23.3081 2.93135H23.2942ZM20.4572 18.1661C19.9565 19.0148 19.442 19.8496 18.9135 20.6287C17.9817 20.6983 17.0083 20.74 16.007 20.74C15.0056 20.74 14.0322 20.6983 13.1004 20.6287C12.5719 19.8496 12.0435 19.0148 11.5567 18.1661C11.0561 17.3035 10.611 16.4548 10.1938 15.5922C10.611 14.7296 11.0561 13.8809 11.5567 13.0183C12.0574 12.1418 12.5858 11.3209 13.1004 10.5557C14.0322 10.4861 15.0056 10.4444 16.007 10.4444C17.0083 10.4444 17.9817 10.4861 18.9135 10.5557C19.442 11.3209 19.9565 12.1418 20.4572 13.0183C20.9439 13.867 21.4029 14.7296 21.8201 15.5922C21.4168 16.4409 20.9718 17.2896 20.4572 18.1661ZM22.5432 17.22C22.9326 18.1522 23.2664 19.0566 23.5445 19.947C22.6545 20.1418 21.6949 20.3227 20.6797 20.4479C21.0135 19.9331 21.3333 19.4044 21.6532 18.8618C21.9731 18.3192 22.2651 17.7627 22.5432 17.22ZM15.993 24.3157C15.3672 23.634 14.7414 22.8827 14.1295 22.0757C14.7414 22.1035 15.3533 22.1174 15.993 22.1174C16.6328 22.1174 17.2447 22.1035 17.8566 22.0757C17.2447 22.8827 16.6189 23.62 15.993 24.3157ZM11.3064 20.4479C10.2912 20.3227 9.33159 20.1557 8.44155 19.947C8.71969 19.0566 9.05345 18.1522 9.44285 17.22C9.72099 17.7627 10.013 18.3192 10.3329 18.8618C10.6528 19.4044 10.9726 19.9331 11.3064 20.4479ZM9.44285 13.9505C9.05345 13.0183 8.71969 12.114 8.44155 11.2235C9.33159 11.0287 10.2912 10.8479 11.3064 10.7227C10.9726 11.2374 10.6528 11.7661 10.3329 12.3087C10.013 12.8513 9.72099 13.394 9.44285 13.9505ZM15.993 6.85483C16.605 7.52265 17.2308 8.27396 17.8566 9.09483C17.2447 9.067 16.6328 9.05309 15.993 9.05309C15.3533 9.05309 14.7414 9.067 14.1295 9.09483C14.7553 8.27396 15.3672 7.52265 15.993 6.85483ZM21.6532 12.3227C21.3333 11.78 21.0135 11.2513 20.6797 10.7366C21.6949 10.8618 22.6545 11.0287 23.5445 11.2374C23.2803 12.114 22.9465 13.0183 22.5432 13.9644C22.2651 13.4218 21.9591 12.8653 21.6532 12.3227ZM7.69057 8.17657C7.25945 5.46352 7.62103 3.55744 8.69187 2.94526C8.95611 2.79222 9.26206 2.72265 9.60973 2.72265C10.9587 2.72265 12.9196 3.8357 15.0335 5.88091C14.1156 6.86874 13.2116 7.9957 12.3355 9.23396C10.8196 9.37309 9.38722 9.5957 8.07996 9.90178C7.92699 9.31743 7.80183 8.73309 7.71838 8.19048L7.69057 8.17657ZM1.3907 15.5922C1.3907 14.1453 3.53238 12.587 7.09257 11.5713C7.49587 12.8653 8.02434 14.2148 8.65015 15.5922C8.02434 16.9557 7.49587 18.3053 7.09257 19.6131C3.54628 18.5974 1.3907 17.0531 1.3907 15.5922ZM13.7262 26.4861C11.5984 28.2113 9.76271 28.8514 8.69187 28.2392C7.62103 27.627 7.25945 25.707 7.69057 23.0079C7.77401 22.4513 7.91308 21.8809 8.05215 21.2966C9.35941 21.6027 10.7918 21.8253 12.3077 21.9644C13.1838 23.1887 14.0878 24.3296 15.0056 25.3314C14.5745 25.7487 14.1434 26.1522 13.7123 26.5L13.7262 26.4861ZM24.2955 23.0079C24.7266 25.7209 24.3651 27.627 23.2942 28.2392C22.2234 28.8514 20.3877 28.2113 18.2599 26.4861C17.8288 26.1383 17.3977 25.7348 16.9665 25.3174C17.8983 24.3157 18.8023 23.1887 19.6645 21.9644C21.1804 21.8253 22.6128 21.6027 23.92 21.2966C24.073 21.8809 24.1982 22.4653 24.2816 23.0079H24.2955ZM24.8935 19.5992C24.4902 18.3053 23.9618 16.9557 23.3359 15.5783C23.9757 14.187 24.4902 12.8374 24.8935 11.5574C28.4537 12.5731 30.5954 14.1174 30.5954 15.5783C30.5954 17.0392 28.4537 18.5835 24.8935 19.5992Z" fill="#61DAFB"/>
</svg>
