<svg width="8" height="13" viewBox="0 0 8 13" fill="none" xmlns="http://www.w3.org/2000/svg">
<path d="M4.18201 0.5C4.18201 0.223858 3.95815 0 3.68201 0C3.40586 0 3.18201 0.223858 3.18201 0.5H4.18201ZM3.32845 12.8536C3.52372 13.0488 3.8403 13.0488 4.03556 12.8536L7.21754 9.67157C7.4128 9.47631 7.4128 9.15973 7.21754 8.96447C7.02228 8.7692 6.7057 8.7692 6.51043 8.96447L3.68201 11.7929L0.85358 8.96447C0.658318 8.7692 0.341735 8.7692 0.146473 8.96447C-0.0487893 9.15973 -0.0487893 9.47631 0.146473 9.67157L3.32845 12.8536ZM3.18201 0.5V12.5H4.18201V0.5H3.18201Z" fill="white"/>
</svg>
