<svg width="32" height="32" viewBox="0 0 32 32" fill="none" xmlns="http://www.w3.org/2000/svg">
<mask id="mask0_78956_2916" style="mask-type:alpha" maskUnits="userSpaceOnUse" x="0" y="0" width="32" height="32">
<rect width="32" height="32" fill="#D9D9D9"/>
</mask>
<g mask="url(#mask0_78956_2916)">
<path d="M22.7717 16.6667H7.33341C7.14364 16.6667 6.98508 16.603 6.85775 16.4757C6.73041 16.3484 6.66675 16.1898 6.66675 16C6.66675 15.8102 6.73041 15.6517 6.85775 15.5244C6.98508 15.397 7.14364 15.3334 7.33341 15.3334H22.7717L15.5207 8.08202C15.3907 7.95225 15.3227 7.79925 15.3167 7.62302C15.3107 7.44702 15.3813 7.28547 15.5284 7.13836C15.6753 6.99658 15.8325 6.92436 16.0001 6.92169C16.1676 6.91925 16.3249 6.99147 16.4717 7.13836L24.5794 15.246C24.6959 15.3625 24.7775 15.4814 24.8244 15.6027C24.8715 15.724 24.8951 15.8565 24.8951 16C24.8951 16.1436 24.8715 16.276 24.8244 16.3974C24.7775 16.5187 24.6959 16.6376 24.5794 16.754L16.4717 24.8617C16.3471 24.9864 16.1954 25.053 16.0167 25.0617C15.8381 25.0701 15.6753 25.0035 15.5284 24.8617C15.3813 24.7146 15.3077 24.556 15.3077 24.386C15.3077 24.2158 15.3813 24.0572 15.5284 23.9104L22.7717 16.6667Z" fill="white"/>
</g>
</svg>
