<svg width="48" height="48" viewBox="0 0 48 48" fill="none" xmlns="http://www.w3.org/2000/svg">
<mask id="mask0_3001_2528" style="mask-type:alpha" maskUnits="userSpaceOnUse" x="0" y="0" width="48" height="48">
<rect width="48" height="48" fill="#D9D9D9"/>
</mask>
<g mask="url(#mask0_3001_2528)">
<path d="M8.769 34.5384C8.55133 34.5384 8.36867 34.4636 8.221 34.3139C8.07367 34.1646 8 33.9794 8 33.7584C8 33.5374 8.07367 33.3558 8.221 33.2134C8.36867 33.0711 8.55133 32.9999 8.769 32.9999H39.231C39.4487 32.9999 39.6313 33.0748 39.779 33.2244C39.9263 33.3738 40 33.5589 40 33.7799C40 34.0009 39.9263 34.1826 39.779 34.3249C39.6313 34.4673 39.4487 34.5384 39.231 34.5384H8.769ZM8.769 24.7689C8.55133 24.7689 8.36867 24.6943 8.221 24.5449C8.07367 24.3953 8 24.2099 8 23.9889C8 23.7679 8.07367 23.5863 8.221 23.4439C8.36867 23.3019 8.55133 23.2309 8.769 23.2309H39.231C39.4487 23.2309 39.6313 23.3056 39.779 23.4549C39.9263 23.6046 40 23.7899 40 24.0109C40 24.2319 39.9263 24.4136 39.779 24.5559C39.6313 24.6979 39.4487 24.7689 39.231 24.7689H8.769ZM8.769 14.9999C8.55133 14.9999 8.36867 14.9251 8.221 14.7754C8.07367 14.6261 8 14.4409 8 14.2199C8 13.9989 8.07367 13.8173 8.221 13.6749C8.36867 13.5326 8.55133 13.4614 8.769 13.4614H39.231C39.4487 13.4614 39.6313 13.5363 39.779 13.6859C39.9263 13.8353 40 14.0204 40 14.2414C40 14.4624 39.9263 14.6441 39.779 14.7864C39.6313 14.9288 39.4487 14.9999 39.231 14.9999H8.769Z" fill="white"/>
</g>
</svg>
