<svg width="26" height="26" viewBox="0 0 26 26" fill="none" xmlns="http://www.w3.org/2000/svg">
<path d="M12.6885 14.796L2.5425 24.9425C2.2655 25.2192 1.91733 25.3608 1.498 25.3675C1.079 25.3738 0.7245 25.2322 0.4345 24.9425C0.144833 24.6525 0 24.3012 0 23.8885C0 23.4758 0.144833 23.1245 0.4345 22.8345L10.581 12.6885L0.4345 2.5425C0.157833 2.2655 0.0161668 1.91733 0.00950012 1.498C0.00316679 1.079 0.144833 0.7245 0.4345 0.4345C0.7245 0.144833 1.07583 0 1.4885 0C1.90117 0 2.2525 0.144833 2.5425 0.4345L12.6885 10.581L22.8345 0.4345C23.1115 0.157833 23.4597 0.0161668 23.879 0.00950012C24.298 0.00316679 24.6525 0.144833 24.9425 0.4345C25.2322 0.7245 25.377 1.07583 25.377 1.4885C25.377 1.90117 25.2322 2.2525 24.9425 2.5425L14.796 12.6885L24.9425 22.8345C25.2192 23.1115 25.3608 23.4597 25.3675 23.879C25.3738 24.298 25.2322 24.6525 24.9425 24.9425C24.6525 25.2322 24.3012 25.377 23.8885 25.377C23.4758 25.377 23.1245 25.2322 22.8345 24.9425L12.6885 14.796Z" fill="#3DCFB6"/>
</svg>
