<svg width="18" height="18" viewBox="0 0 18 18" fill="none" xmlns="http://www.w3.org/2000/svg">
<path d="M8.93957 10.3615L1.75507 17.546C1.54207 17.7587 1.30607 17.8587 1.04707 17.846C0.788067 17.833 0.552234 17.7202 0.339568 17.5075C0.126901 17.2948 0.0205673 17.0525 0.0205673 16.7805C0.0205673 16.5088 0.126901 16.2665 0.339568 16.0535L7.48557 8.9075L0.301068 1.773C0.0884014 1.56 -0.0115986 1.31767 0.00106805 1.046C0.014068 0.774336 0.126901 0.532 0.339568 0.319C0.552234 0.106334 0.794568 0 1.06657 0C1.33823 0 1.58057 0.106334 1.79357 0.319L8.93957 7.5035L16.0741 0.319C16.2871 0.106334 16.5231 0 16.7821 0C17.0411 0 17.2769 0.106334 17.4896 0.319C17.7102 0.539667 17.8206 0.783835 17.8206 1.0515C17.8206 1.3195 17.7102 1.56 17.4896 1.773L10.3436 8.9075L17.5281 16.092C17.7407 16.305 17.8471 16.541 17.8471 16.8C17.8471 17.059 17.7407 17.2948 17.5281 17.5075C17.3074 17.7282 17.0632 17.8385 16.7956 17.8385C16.5276 17.8385 16.2871 17.7282 16.0741 17.5075L8.93957 10.3615Z" fill="white"/>
</svg>
