<svg width="26" height="27" viewBox="0 0 26 27" fill="none" xmlns="http://www.w3.org/2000/svg">
<path d="M12.3667 18.0333C13.9222 18.0333 15.2444 17.5333 16.3333 16.5333C17.4222 15.5333 17.9667 14.3222 17.9667 12.9C17.9667 11.6333 17.5611 10.5611 16.75 9.68333C15.9389 8.80556 14.9556 8.36667 13.8 8.36667C12.7556 8.36667 11.8722 8.7 11.15 9.36667C10.4278 10.0333 10.0667 10.8556 10.0667 11.8333C10.0667 12.2556 10.1389 12.6722 10.2833 13.0833C10.4278 13.4944 10.6778 13.8556 11.0333 14.1667C11.3889 14.4778 11.7444 14.6056 12.1 14.55C12.4556 14.4944 12.7444 14.3444 12.9667 14.1C13.1889 13.8556 13.3167 13.5611 13.35 13.2167C13.3833 12.8722 13.2444 12.5556 12.9333 12.2667C12.8889 12.2222 12.8444 12.1667 12.8 12.1C12.7556 12.0333 12.7333 11.9556 12.7333 11.8667C12.7333 11.6222 12.8333 11.4278 13.0333 11.2833C13.2333 11.1389 13.4889 11.0667 13.8 11.0667C14.2444 11.0667 14.6111 11.25 14.9 11.6167C15.1889 11.9833 15.3333 12.4222 15.3333 12.9333C15.3333 13.6222 15.05 14.2056 14.4833 14.6833C13.9167 15.1611 13.2222 15.4 12.4 15.4C11.3556 15.4 10.4722 14.9778 9.75 14.1333C9.02778 13.2889 8.66667 12.2556 8.66667 11.0333C8.66667 10.6111 8.71667 10.2 8.81667 9.8C8.91667 9.4 9.06667 9.02222 9.26667 8.66667C9.44444 8.33333 9.53333 7.98333 9.53333 7.61667C9.53333 7.25 9.4 6.93333 9.13333 6.66667C8.86667 6.4 8.54444 6.27222 8.16667 6.28333C7.78889 6.29444 7.5 6.45556 7.3 6.76667C6.85556 7.38889 6.52222 8.05556 6.3 8.76667C6.07778 9.47778 5.96667 10.2222 5.96667 11C5.96667 12.9556 6.58889 14.6167 7.83333 15.9833C9.07778 17.35 10.5889 18.0333 12.3667 18.0333ZM5.33333 26.6667C4.95555 26.6667 4.63889 26.5389 4.38333 26.2833C4.12778 26.0278 4 25.7111 4 25.3333V20.9333C2.73333 19.7778 1.75 18.4278 1.05 16.8833C0.35 15.3389 0 13.7111 0 12C0 8.66667 1.16667 5.83333 3.5 3.5C5.83333 1.16667 8.66667 0 12 0C14.7778 0 17.2389 0.816667 19.3833 2.45C21.5278 4.08333 22.9222 6.21111 23.5667 8.83333L25.3 15.6667C25.4111 16.0889 25.3333 16.4722 25.0667 16.8167C24.8 17.1611 24.4444 17.3333 24 17.3333H21.3333V21.3333C21.3333 22.0667 21.0722 22.6944 20.55 23.2167C20.0278 23.7389 19.4 24 18.6667 24H16V25.3333C16 25.7111 15.8722 26.0278 15.6167 26.2833C15.3611 26.5389 15.0444 26.6667 14.6667 26.6667H5.33333Z" fill="#3DCFB6"/>
</svg>
