<svg width="32" height="32" viewBox="0 0 32 32" fill="none" xmlns="http://www.w3.org/2000/svg">
<mask id="mask0_3296_3890" style="mask-type:alpha" maskUnits="userSpaceOnUse" x="0" y="0" width="32" height="32">
<rect width="32" height="32" fill="#D9D9D9"/>
</mask>
<g mask="url(#mask0_3296_3890)">
<path d="M15.9921 28.588C15.7292 28.588 15.4681 28.5435 15.2087 28.4547C14.9496 28.3658 14.7201 28.225 14.5201 28.0323C13.4163 27.025 12.3163 25.9435 11.2201 24.788C10.1236 23.6324 9.14028 22.4342 8.27005 21.1933C7.39961 19.9526 6.69217 18.6898 6.14772 17.4047C5.60328 16.1193 5.33105 14.8508 5.33105 13.599C5.33105 10.2656 6.40328 7.61009 8.54772 5.63232C10.6922 3.65454 13.1755 2.66565 15.9977 2.66565C18.8199 2.66565 21.3033 3.65454 23.4477 5.63232C25.5922 7.61009 26.6644 10.2656 26.6644 13.599C26.6644 14.8508 26.3922 16.1193 25.8477 17.4047C25.3033 18.6898 24.5958 19.9526 23.7254 21.1933C22.8552 22.4342 21.8718 23.6324 20.7754 24.788C19.6792 25.9435 18.5792 27.025 17.4754 28.0323C17.2754 28.225 17.0439 28.3658 16.7811 28.4547C16.5182 28.5435 16.2552 28.588 15.9921 28.588ZM15.9997 15.7766C16.6724 15.7766 17.2476 15.5371 17.7254 15.058C18.2032 14.5791 18.4421 14.0032 18.4421 13.3303C18.4421 12.6576 18.2025 12.0824 17.7234 11.6046C17.2445 11.1269 16.6686 10.888 15.9957 10.888C15.3231 10.888 14.7478 11.1275 14.2701 11.6066C13.7923 12.0855 13.5534 12.6614 13.5534 13.3343C13.5534 14.007 13.7929 14.5822 14.2721 15.06C14.7509 15.5378 15.3268 15.7766 15.9997 15.7766Z" fill="#3DCFB6"/>
</g>
</svg>
