<svg width="184" height="55" viewBox="0 0 184 55" fill="none" xmlns="http://www.w3.org/2000/svg">
<g filter="url(#filter0_d_4_157)">
<path d="M169.79 45.952V30.368H173.566V45.952H169.79ZM172.638 39.136C172.638 37.0987 172.867 35.4133 173.326 34.08C173.784 32.7467 174.398 31.76 175.166 31.12C175.944 30.4693 176.808 30.144 177.758 30.144C178.014 30.144 178.254 30.16 178.478 30.192C178.712 30.224 178.942 30.272 179.166 30.336L179.102 34.112C178.824 34.048 178.526 33.9947 178.206 33.952C177.886 33.9093 177.598 33.888 177.342 33.888C176.51 33.888 175.811 34.0907 175.246 34.496C174.691 34.8907 174.27 35.4773 173.982 36.256C173.704 37.0347 173.566 37.9947 173.566 39.136H172.638Z" fill="white"/>
</g>
<g filter="url(#filter1_d_4_157)">
<path d="M160.213 46.4C158.89 46.4 157.68 46.0587 156.581 45.376C155.482 44.6933 154.602 43.7387 153.941 42.512C153.28 41.2747 152.949 39.8293 152.949 38.176C152.949 36.4693 153.274 35.0027 153.925 33.776C154.586 32.5493 155.466 31.6107 156.565 30.96C157.664 30.3093 158.88 29.984 160.213 29.984C161.45 29.984 162.517 30.2347 163.413 30.736C164.32 31.2267 165.045 31.8987 165.589 32.752C166.144 33.5947 166.517 34.5493 166.709 35.616C166.901 36.6827 166.912 37.7813 166.741 38.912H155.957V36.864H164.069L163.333 37.344C163.365 36.8427 163.338 36.336 163.253 35.824C163.178 35.312 163.029 34.8427 162.805 34.416C162.581 33.9893 162.261 33.648 161.845 33.392C161.44 33.1253 160.917 32.992 160.277 32.992C159.509 32.992 158.858 33.184 158.325 33.568C157.792 33.952 157.386 34.4747 157.109 35.136C156.832 35.7973 156.693 36.544 156.693 37.376V38.88C156.693 39.7547 156.821 40.528 157.077 41.2C157.344 41.872 157.733 42.4 158.245 42.784C158.768 43.168 159.424 43.36 160.213 43.36C160.949 43.36 161.568 43.1893 162.069 42.848C162.57 42.5067 162.89 41.9947 163.029 41.312H166.837C166.677 42.3147 166.298 43.2 165.701 43.968C165.114 44.7253 164.352 45.3227 163.413 45.76C162.474 46.1867 161.408 46.4 160.213 46.4Z" fill="white"/>
</g>
<g filter="url(#filter2_d_4_157)">
<path d="M139.025 45.952V42.88L147.089 33.472H139.025V30.432H151.249V33.472L143.441 42.88H151.249V45.952H139.025Z" fill="white"/>
</g>
<g filter="url(#filter3_d_4_157)">
<path d="M134.4 46.4C133.483 46.4 132.64 46.2293 131.872 45.888C131.115 45.5467 130.507 45.024 130.048 44.32C129.6 43.616 129.376 42.72 129.376 41.632V26.304H133.152V41.504C133.152 42.784 133.76 43.424 134.976 43.424C135.35 43.424 135.723 43.3813 136.096 43.296C136.47 43.2107 136.896 43.0827 137.376 42.912L137.92 45.568C137.323 45.8027 136.742 46 136.176 46.16C135.611 46.32 135.019 46.4 134.4 46.4ZM127.2 32.928V30.432H137.376V32.928H127.2Z" fill="white"/>
</g>
<g filter="url(#filter4_d_4_157)">
<path d="M122.46 27.584C121.724 27.584 121.148 27.392 120.732 27.008C120.327 26.6133 120.124 26.0693 120.124 25.376C120.124 24.704 120.327 24.1707 120.732 23.776C121.148 23.3707 121.724 23.168 122.46 23.168C123.186 23.168 123.756 23.3707 124.172 23.776C124.588 24.1707 124.796 24.704 124.796 25.376C124.796 26.0693 124.588 26.6133 124.172 27.008C123.756 27.392 123.186 27.584 122.46 27.584ZM120.572 45.952V30.368H124.348V45.952H120.572Z" fill="white"/>
</g>
<g filter="url(#filter5_d_4_157)">
<path d="M110.675 46.4C109.353 46.4 108.142 46.0587 107.043 45.376C105.945 44.6933 105.065 43.7387 104.403 42.512C103.742 41.2747 103.411 39.8293 103.411 38.176C103.411 36.4693 103.737 35.0027 104.387 33.776C105.049 32.5493 105.929 31.6107 107.027 30.96C108.126 30.3093 109.342 29.984 110.675 29.984C111.913 29.984 112.979 30.2347 113.875 30.736C114.782 31.2267 115.507 31.8987 116.051 32.752C116.606 33.5947 116.979 34.5493 117.171 35.616C117.363 36.6827 117.374 37.7813 117.203 38.912H106.419V36.864H114.531L113.795 37.344C113.827 36.8427 113.801 36.336 113.715 35.824C113.641 35.312 113.491 34.8427 113.267 34.416C113.043 33.9893 112.723 33.648 112.307 33.392C111.902 33.1253 111.379 32.992 110.739 32.992C109.971 32.992 109.321 33.184 108.787 33.568C108.254 33.952 107.849 34.4747 107.571 35.136C107.294 35.7973 107.155 36.544 107.155 37.376V38.88C107.155 39.7547 107.283 40.528 107.539 41.2C107.806 41.872 108.195 42.4 108.707 42.784C109.23 43.168 109.886 43.36 110.675 43.36C111.411 43.36 112.03 43.1893 112.531 42.848C113.033 42.5067 113.353 41.9947 113.491 41.312H117.299C117.139 42.3147 116.761 43.2 116.163 43.968C115.577 44.7253 114.814 45.3227 113.875 45.76C112.937 46.1867 111.87 46.4 110.675 46.4Z" fill="white"/>
</g>
<g filter="url(#filter6_d_4_157)">
<path d="M94.7632 46.4C93.7926 46.4 92.9019 46.128 92.0912 45.584C91.2912 45.04 90.6512 44.2293 90.1712 43.152C89.6912 42.064 89.4512 40.704 89.4512 39.072H90.6032C90.6032 39.8507 90.7792 40.5333 91.1312 41.12C91.4832 41.7067 91.9366 42.1653 92.4912 42.496C93.0459 42.816 93.6219 42.976 94.2192 42.976C94.9552 42.976 95.6112 42.7733 96.1872 42.368C96.7632 41.9627 97.2166 41.3973 97.5472 40.672C97.8886 39.9467 98.0592 39.0933 98.0592 38.112C98.0592 37.1627 97.8939 36.336 97.5632 35.632C97.2326 34.9173 96.7739 34.3627 96.1872 33.968C95.6112 33.5733 94.9446 33.376 94.1872 33.376C93.5579 33.376 92.9712 33.5307 92.4272 33.84C91.8832 34.1387 91.4406 34.576 91.0992 35.152C90.7686 35.7173 90.6032 36.4053 90.6032 37.216H89.4512C89.4512 35.648 89.6752 34.3253 90.1232 33.248C90.5819 32.1707 91.2272 31.36 92.0592 30.816C92.9019 30.2613 93.8992 29.984 95.0512 29.984C96.3099 29.984 97.4512 30.32 98.4752 30.992C99.5099 31.6533 100.331 32.5973 100.939 33.824C101.558 35.04 101.867 36.4693 101.867 38.112C101.867 39.776 101.547 41.232 100.907 42.48C100.278 43.7173 99.4246 44.6827 98.3472 45.376C97.2699 46.0587 96.0752 46.4 94.7632 46.4ZM86.8272 45.952V24H90.6032V42.112L89.2912 45.952H86.8272Z" fill="white"/>
</g>
<g filter="url(#filter7_d_4_157)">
<path d="M77.3442 46.4C75.8509 46.4 74.5656 46.1973 73.4882 45.792C72.4216 45.376 71.6002 44.784 71.0242 44.016C70.4482 43.2373 70.1549 42.304 70.1442 41.216H73.6322C73.6642 41.984 73.9682 42.544 74.5442 42.896C75.1202 43.248 75.9042 43.424 76.8962 43.424C77.4402 43.424 77.9202 43.344 78.3362 43.184C78.7629 43.024 79.0936 42.8053 79.3282 42.528C79.5629 42.2507 79.6802 41.9413 79.6802 41.6C79.6802 41.1627 79.5202 40.8213 79.2002 40.576C78.8909 40.32 78.3896 40.0853 77.6962 39.872L74.3042 38.656C73.0882 38.2187 72.1549 37.6427 71.5042 36.928C70.8536 36.2133 70.5282 35.36 70.5282 34.368C70.5282 33.056 71.1202 32 72.3042 31.2C73.4989 30.3893 75.0936 29.984 77.0882 29.984C79.0722 29.984 80.6029 30.4213 81.6802 31.296C82.7682 32.16 83.3282 33.2587 83.3602 34.592H79.8082C79.7549 34.08 79.5096 33.6747 79.0722 33.376C78.6349 33.0773 77.9736 32.928 77.0882 32.928C76.2882 32.928 75.6589 33.0933 75.2002 33.424C74.7522 33.744 74.5282 34.1227 74.5282 34.56C74.5282 35.296 75.1576 35.8507 76.4162 36.224L80.0962 37.6C81.2909 38.0053 82.2189 38.528 82.8802 39.168C83.5416 39.808 83.8722 40.6187 83.8722 41.6C83.8722 42.4213 83.5949 43.2 83.0402 43.936C82.4962 44.6613 81.7336 45.2533 80.7522 45.712C79.7709 46.1707 78.6349 46.4 77.3442 46.4Z" fill="white"/>
</g>
<g filter="url(#filter8_d_4_157)">
<path d="M64.3215 45.952L63.8415 42.176V35.936C63.8415 34.848 63.6175 34.0427 63.1695 33.52C62.7322 32.9973 61.9855 32.736 60.9295 32.736C60.3215 32.736 59.7935 32.8267 59.3455 33.008C58.8975 33.1893 58.5508 33.4507 58.3055 33.792C58.0708 34.1227 57.9535 34.528 57.9535 35.008H53.8255C53.8255 33.8347 54.1082 32.88 54.6735 32.144C55.2388 31.3973 56.0495 30.8533 57.1055 30.512C58.1722 30.16 59.4468 29.984 60.9295 29.984C62.2735 29.984 63.4468 30.2027 64.4495 30.64C65.4522 31.0667 66.2308 31.728 66.7855 32.624C67.3402 33.52 67.6175 34.6667 67.6175 36.064V45.952H64.3215ZM59.2335 46.4C57.9002 46.4 56.7855 46.1707 55.8895 45.712C55.0042 45.2427 54.3375 44.6293 53.8895 43.872C53.4415 43.1147 53.2175 42.2933 53.2175 41.408C53.2175 40.4267 53.4735 39.6053 53.9855 38.944C54.5082 38.272 55.2442 37.7707 56.1935 37.44C57.1428 37.0987 58.2628 36.928 59.5535 36.928C60.3962 36.928 61.1908 36.992 61.9375 37.12C62.6948 37.248 63.4468 37.4187 64.1935 37.632V39.84C63.6068 39.648 62.9668 39.4987 62.2735 39.392C61.5802 39.2853 60.9295 39.232 60.3215 39.232C59.4255 39.232 58.6895 39.3973 58.1135 39.728C57.5375 40.0587 57.2495 40.6187 57.2495 41.408C57.2495 41.984 57.4842 42.48 57.9535 42.896C58.4228 43.312 59.1695 43.52 60.1935 43.52C60.9722 43.52 61.6335 43.3493 62.1775 43.008C62.7215 42.6667 63.1322 42.24 63.4095 41.728C63.6975 41.216 63.8415 40.704 63.8415 40.192H64.7375C64.7375 41.312 64.5295 42.3467 64.1135 43.296C63.6975 44.2347 63.0788 44.9867 62.2575 45.552C61.4468 46.1173 60.4388 46.4 59.2335 46.4Z" fill="white"/>
</g>
<g filter="url(#filter9_d_4_157)">
<path d="M47.096 25.184H52.28L38.584 39.2V34.048L47.096 25.184ZM42.488 33.76L52.856 45.952H47.992L39.864 36.224L42.488 33.76ZM35.096 25.184H38.904V45.952H35.096V25.184Z" fill="white"/>
</g>
<g filter="url(#filter10_d_4_157)">
<path d="M116.908 21.952V0H120.684V21.952H116.908Z" fill="white"/>
</g>
<g filter="url(#filter11_d_4_157)">
<path d="M109.678 21.952L109.198 18.176V11.936C109.198 10.848 108.974 10.0427 108.526 9.52C108.088 8.99733 107.342 8.736 106.286 8.736C105.678 8.736 105.15 8.82667 104.702 9.008C104.254 9.18933 103.907 9.45067 103.662 9.792C103.427 10.1227 103.31 10.528 103.31 11.008H99.1817C99.1817 9.83467 99.4644 8.88 100.03 8.144C100.595 7.39733 101.406 6.85333 102.462 6.512C103.528 6.16 104.803 5.984 106.286 5.984C107.63 5.984 108.803 6.20267 109.806 6.64C110.808 7.06667 111.587 7.728 112.142 8.624C112.696 9.52 112.974 10.6667 112.974 12.064V21.952H109.678ZM104.59 22.4C103.256 22.4 102.142 22.1707 101.246 21.712C100.36 21.2427 99.6937 20.6293 99.2457 19.872C98.7977 19.1147 98.5737 18.2933 98.5737 17.408C98.5737 16.4267 98.8297 15.6053 99.3417 14.944C99.8644 14.272 100.6 13.7707 101.55 13.44C102.499 13.0987 103.619 12.928 104.91 12.928C105.752 12.928 106.547 12.992 107.294 13.12C108.051 13.248 108.803 13.4187 109.55 13.632V15.84C108.963 15.648 108.323 15.4987 107.63 15.392C106.936 15.2853 106.286 15.232 105.678 15.232C104.782 15.232 104.046 15.3973 103.47 15.728C102.894 16.0587 102.606 16.6187 102.606 17.408C102.606 17.984 102.84 18.48 103.31 18.896C103.779 19.312 104.526 19.52 105.55 19.52C106.328 19.52 106.99 19.3493 107.534 19.008C108.078 18.6667 108.488 18.24 108.766 17.728C109.054 17.216 109.198 16.704 109.198 16.192H110.094C110.094 17.312 109.886 18.3467 109.47 19.296C109.054 20.2347 108.435 20.9867 107.614 21.552C106.803 22.1173 105.795 22.4 104.59 22.4Z" fill="white"/>
</g>
<g filter="url(#filter12_d_4_157)">
<path d="M90.3403 22.4C89.0389 22.4 87.8283 22.064 86.7083 21.392C85.5989 20.7093 84.6976 19.7547 84.0043 18.528C83.3216 17.2907 82.9803 15.84 82.9803 14.176C82.9803 12.416 83.3216 10.928 84.0043 9.712C84.6976 8.48533 85.5989 7.55733 86.7083 6.928C87.8283 6.29867 89.0389 5.984 90.3403 5.984C91.3536 5.984 92.2443 6.14933 93.0123 6.48C93.7909 6.8 94.4523 7.23733 94.9963 7.792C95.5403 8.336 95.9669 8.944 96.2763 9.616C96.5856 10.288 96.7829 10.9653 96.8683 11.648L93.0603 11.744C92.8896 11.0613 92.5696 10.496 92.1003 10.048C91.6416 9.6 91.0443 9.376 90.3083 9.376C89.7003 9.376 89.1296 9.54667 88.5963 9.888C88.0629 10.2187 87.6256 10.736 87.2843 11.44C86.9536 12.144 86.7883 13.056 86.7883 14.176C86.7883 15.2427 86.9429 16.1333 87.2523 16.848C87.5723 17.552 87.9989 18.0853 88.5323 18.448C89.0656 18.8 89.6576 18.976 90.3083 18.976C91.2683 18.976 91.9669 18.7467 92.4043 18.288C92.8416 17.8187 93.0603 17.1947 93.0603 16.416H96.8683C96.8683 17.5147 96.6176 18.5173 96.1163 19.424C95.6149 20.3307 94.8789 21.056 93.9083 21.6C92.9376 22.1333 91.7483 22.4 90.3403 22.4Z" fill="white"/>
</g>
<g filter="url(#filter13_d_4_157)">
<path d="M74.9692 22.4C73.4759 22.4 72.1906 22.1973 71.1132 21.792C70.0466 21.376 69.2252 20.784 68.6492 20.016C68.0732 19.2373 67.7799 18.304 67.7692 17.216H71.2572C71.2892 17.984 71.5932 18.544 72.1692 18.896C72.7452 19.248 73.5292 19.424 74.5212 19.424C75.0652 19.424 75.5452 19.344 75.9612 19.184C76.3879 19.024 76.7186 18.8053 76.9532 18.528C77.1879 18.2507 77.3052 17.9413 77.3052 17.6C77.3052 17.1627 77.1452 16.8213 76.8252 16.576C76.5159 16.32 76.0146 16.0853 75.3212 15.872L71.9292 14.656C70.7132 14.2187 69.7799 13.6427 69.1292 12.928C68.4786 12.2133 68.1532 11.36 68.1532 10.368C68.1532 9.056 68.7452 8 69.9292 7.2C71.1239 6.38933 72.7186 5.984 74.7132 5.984C76.6972 5.984 78.2279 6.42133 79.3052 7.296C80.3932 8.16 80.9532 9.25867 80.9852 10.592H77.4332C77.3799 10.08 77.1346 9.67467 76.6972 9.376C76.2599 9.07733 75.5986 8.928 74.7132 8.928C73.9132 8.928 73.2839 9.09333 72.8252 9.424C72.3772 9.744 72.1532 10.1227 72.1532 10.56C72.1532 11.296 72.7826 11.8507 74.0412 12.224L77.7212 13.6C78.9159 14.0053 79.8439 14.528 80.5052 15.168C81.1666 15.808 81.4972 16.6187 81.4972 17.6C81.4972 18.4213 81.2199 19.2 80.6652 19.936C80.1212 20.6613 79.3586 21.2533 78.3772 21.712C77.3959 22.1707 76.2599 22.4 74.9692 22.4Z" fill="white"/>
</g>
<g filter="url(#filter14_d_4_157)">
<path d="M61.9465 21.952L61.4665 18.176V11.936C61.4665 10.848 61.2425 10.0427 60.7945 9.52C60.3572 8.99733 59.6105 8.736 58.5545 8.736C57.9465 8.736 57.4185 8.82667 56.9705 9.008C56.5225 9.18933 56.1758 9.45067 55.9305 9.792C55.6958 10.1227 55.5785 10.528 55.5785 11.008H51.4505C51.4505 9.83467 51.7332 8.88 52.2985 8.144C52.8638 7.39733 53.6745 6.85333 54.7305 6.512C55.7972 6.16 57.0718 5.984 58.5545 5.984C59.8985 5.984 61.0718 6.20267 62.0745 6.64C63.0772 7.06667 63.8558 7.728 64.4105 8.624C64.9652 9.52 65.2425 10.6667 65.2425 12.064V21.952H61.9465ZM56.8585 22.4C55.5252 22.4 54.4105 22.1707 53.5145 21.712C52.6292 21.2427 51.9625 20.6293 51.5145 19.872C51.0665 19.1147 50.8425 18.2933 50.8425 17.408C50.8425 16.4267 51.0985 15.6053 51.6105 14.944C52.1332 14.272 52.8692 13.7707 53.8185 13.44C54.7678 13.0987 55.8878 12.928 57.1785 12.928C58.0212 12.928 58.8158 12.992 59.5625 13.12C60.3198 13.248 61.0718 13.4187 61.8185 13.632V15.84C61.2318 15.648 60.5918 15.4987 59.8985 15.392C59.2052 15.2853 58.5545 15.232 57.9465 15.232C57.0505 15.232 56.3145 15.3973 55.7385 15.728C55.1625 16.0587 54.8745 16.6187 54.8745 17.408C54.8745 17.984 55.1092 18.48 55.5785 18.896C56.0478 19.312 56.7945 19.52 57.8185 19.52C58.5972 19.52 59.2585 19.3493 59.8025 19.008C60.3465 18.6667 60.7572 18.24 61.0345 17.728C61.3225 17.216 61.4665 16.704 61.4665 16.192H62.3625C62.3625 17.312 62.1545 18.3467 61.7385 19.296C61.3225 20.2347 60.7038 20.9867 59.8825 21.552C59.0718 22.1173 58.0638 22.4 56.8585 22.4Z" fill="white"/>
</g>
<g filter="url(#filter15_d_4_157)">
<path d="M35 21.952V1.184H42.328C44.664 1.184 46.4827 1.76 47.784 2.912C49.096 4.064 49.752 5.696 49.752 7.808C49.752 9.89867 49.096 11.52 47.784 12.672C46.4827 13.824 44.664 14.4 42.328 14.4H38.808V21.952H35ZM38.808 11.104H42.328C43.5013 11.104 44.3867 10.7947 44.984 10.176C45.5813 9.55733 45.88 8.768 45.88 7.808C45.88 6.82667 45.5813 6.02133 44.984 5.392C44.3867 4.76266 43.5013 4.448 42.328 4.448H38.808V11.104Z" fill="white"/>
</g>
<g filter="url(#filter16_d_4_157)">
<path d="M31 22L4 22L4 11.5683C4 8.24295 4.74884 5.65401 6.24653 3.80152C7.74422 1.93384 9.86595 0.999999 12.6117 0.999999C15.3297 0.999999 17.4376 1.93384 18.9353 3.80152C20.433 5.65401 21.1818 8.24295 21.1818 11.5683L21.1818 16.5792L31 16.5792V22ZM16.8968 16.5792V11.5683C16.8968 9.89805 16.4946 8.63774 15.6903 7.78742C14.886 6.93709 13.8598 6.51193 12.6117 6.51193C11.3359 6.51193 10.2889 6.93709 9.47072 7.78742C8.65254 8.63774 8.24345 9.89805 8.24345 11.5683L8.24345 16.5792L16.8968 16.5792Z" fill="#3DCFB6"/>
</g>
<g filter="url(#filter17_d_4_157)">
<path d="M31 38.2162V45.2216L12.7781 26.7135H19.4761L31 38.2162ZM19.8505 31.9892L4 46V39.427L16.6471 28.4432L19.8505 31.9892ZM31 22V27.1459L4 27.1459V22L31 22Z" fill="#3DCFB6"/>
</g>
<defs>
<filter id="filter0_d_4_157" x="165.79" y="30.144" width="17.376" height="23.808" filterUnits="userSpaceOnUse" color-interpolation-filters="sRGB">
<feFlood flood-opacity="0" result="BackgroundImageFix"/>
<feColorMatrix in="SourceAlpha" type="matrix" values="0 0 0 0 0 0 0 0 0 0 0 0 0 0 0 0 0 0 127 0" result="hardAlpha"/>
<feOffset dy="4"/>
<feGaussianBlur stdDeviation="2"/>
<feComposite in2="hardAlpha" operator="out"/>
<feColorMatrix type="matrix" values="0 0 0 0 0 0 0 0 0 0 0 0 0 0 0 0 0 0 0.25 0"/>
<feBlend mode="normal" in2="BackgroundImageFix" result="effect1_dropShadow_4_157"/>
<feBlend mode="normal" in="SourceGraphic" in2="effect1_dropShadow_4_157" result="shape"/>
</filter>
<filter id="filter1_d_4_157" x="148.949" y="29.984" width="21.9125" height="24.416" filterUnits="userSpaceOnUse" color-interpolation-filters="sRGB">
<feFlood flood-opacity="0" result="BackgroundImageFix"/>
<feColorMatrix in="SourceAlpha" type="matrix" values="0 0 0 0 0 0 0 0 0 0 0 0 0 0 0 0 0 0 127 0" result="hardAlpha"/>
<feOffset dy="4"/>
<feGaussianBlur stdDeviation="2"/>
<feComposite in2="hardAlpha" operator="out"/>
<feColorMatrix type="matrix" values="0 0 0 0 0 0 0 0 0 0 0 0 0 0 0 0 0 0 0.25 0"/>
<feBlend mode="normal" in2="BackgroundImageFix" result="effect1_dropShadow_4_157"/>
<feBlend mode="normal" in="SourceGraphic" in2="effect1_dropShadow_4_157" result="shape"/>
</filter>
<filter id="filter2_d_4_157" x="135.025" y="30.432" width="20.224" height="23.52" filterUnits="userSpaceOnUse" color-interpolation-filters="sRGB">
<feFlood flood-opacity="0" result="BackgroundImageFix"/>
<feColorMatrix in="SourceAlpha" type="matrix" values="0 0 0 0 0 0 0 0 0 0 0 0 0 0 0 0 0 0 127 0" result="hardAlpha"/>
<feOffset dy="4"/>
<feGaussianBlur stdDeviation="2"/>
<feComposite in2="hardAlpha" operator="out"/>
<feColorMatrix type="matrix" values="0 0 0 0 0 0 0 0 0 0 0 0 0 0 0 0 0 0 0.25 0"/>
<feBlend mode="normal" in2="BackgroundImageFix" result="effect1_dropShadow_4_157"/>
<feBlend mode="normal" in="SourceGraphic" in2="effect1_dropShadow_4_157" result="shape"/>
</filter>
<filter id="filter3_d_4_157" x="123.2" y="26.304" width="18.72" height="28.096" filterUnits="userSpaceOnUse" color-interpolation-filters="sRGB">
<feFlood flood-opacity="0" result="BackgroundImageFix"/>
<feColorMatrix in="SourceAlpha" type="matrix" values="0 0 0 0 0 0 0 0 0 0 0 0 0 0 0 0 0 0 127 0" result="hardAlpha"/>
<feOffset dy="4"/>
<feGaussianBlur stdDeviation="2"/>
<feComposite in2="hardAlpha" operator="out"/>
<feColorMatrix type="matrix" values="0 0 0 0 0 0 0 0 0 0 0 0 0 0 0 0 0 0 0.25 0"/>
<feBlend mode="normal" in2="BackgroundImageFix" result="effect1_dropShadow_4_157"/>
<feBlend mode="normal" in="SourceGraphic" in2="effect1_dropShadow_4_157" result="shape"/>
</filter>
<filter id="filter4_d_4_157" x="116.124" y="23.168" width="12.672" height="30.784" filterUnits="userSpaceOnUse" color-interpolation-filters="sRGB">
<feFlood flood-opacity="0" result="BackgroundImageFix"/>
<feColorMatrix in="SourceAlpha" type="matrix" values="0 0 0 0 0 0 0 0 0 0 0 0 0 0 0 0 0 0 127 0" result="hardAlpha"/>
<feOffset dy="4"/>
<feGaussianBlur stdDeviation="2"/>
<feComposite in2="hardAlpha" operator="out"/>
<feColorMatrix type="matrix" values="0 0 0 0 0 0 0 0 0 0 0 0 0 0 0 0 0 0 0.25 0"/>
<feBlend mode="normal" in2="BackgroundImageFix" result="effect1_dropShadow_4_157"/>
<feBlend mode="normal" in="SourceGraphic" in2="effect1_dropShadow_4_157" result="shape"/>
</filter>
<filter id="filter5_d_4_157" x="99.4115" y="29.984" width="21.9125" height="24.416" filterUnits="userSpaceOnUse" color-interpolation-filters="sRGB">
<feFlood flood-opacity="0" result="BackgroundImageFix"/>
<feColorMatrix in="SourceAlpha" type="matrix" values="0 0 0 0 0 0 0 0 0 0 0 0 0 0 0 0 0 0 127 0" result="hardAlpha"/>
<feOffset dy="4"/>
<feGaussianBlur stdDeviation="2"/>
<feComposite in2="hardAlpha" operator="out"/>
<feColorMatrix type="matrix" values="0 0 0 0 0 0 0 0 0 0 0 0 0 0 0 0 0 0 0.25 0"/>
<feBlend mode="normal" in2="BackgroundImageFix" result="effect1_dropShadow_4_157"/>
<feBlend mode="normal" in="SourceGraphic" in2="effect1_dropShadow_4_157" result="shape"/>
</filter>
<filter id="filter6_d_4_157" x="82.8272" y="24" width="23.04" height="30.4" filterUnits="userSpaceOnUse" color-interpolation-filters="sRGB">
<feFlood flood-opacity="0" result="BackgroundImageFix"/>
<feColorMatrix in="SourceAlpha" type="matrix" values="0 0 0 0 0 0 0 0 0 0 0 0 0 0 0 0 0 0 127 0" result="hardAlpha"/>
<feOffset dy="4"/>
<feGaussianBlur stdDeviation="2"/>
<feComposite in2="hardAlpha" operator="out"/>
<feColorMatrix type="matrix" values="0 0 0 0 0 0 0 0 0 0 0 0 0 0 0 0 0 0 0.25 0"/>
<feBlend mode="normal" in2="BackgroundImageFix" result="effect1_dropShadow_4_157"/>
<feBlend mode="normal" in="SourceGraphic" in2="effect1_dropShadow_4_157" result="shape"/>
</filter>
<filter id="filter7_d_4_157" x="66.1442" y="29.984" width="21.728" height="24.416" filterUnits="userSpaceOnUse" color-interpolation-filters="sRGB">
<feFlood flood-opacity="0" result="BackgroundImageFix"/>
<feColorMatrix in="SourceAlpha" type="matrix" values="0 0 0 0 0 0 0 0 0 0 0 0 0 0 0 0 0 0 127 0" result="hardAlpha"/>
<feOffset dy="4"/>
<feGaussianBlur stdDeviation="2"/>
<feComposite in2="hardAlpha" operator="out"/>
<feColorMatrix type="matrix" values="0 0 0 0 0 0 0 0 0 0 0 0 0 0 0 0 0 0 0.25 0"/>
<feBlend mode="normal" in2="BackgroundImageFix" result="effect1_dropShadow_4_157"/>
<feBlend mode="normal" in="SourceGraphic" in2="effect1_dropShadow_4_157" result="shape"/>
</filter>
<filter id="filter8_d_4_157" x="49.2175" y="29.984" width="22.4" height="24.416" filterUnits="userSpaceOnUse" color-interpolation-filters="sRGB">
<feFlood flood-opacity="0" result="BackgroundImageFix"/>
<feColorMatrix in="SourceAlpha" type="matrix" values="0 0 0 0 0 0 0 0 0 0 0 0 0 0 0 0 0 0 127 0" result="hardAlpha"/>
<feOffset dy="4"/>
<feGaussianBlur stdDeviation="2"/>
<feComposite in2="hardAlpha" operator="out"/>
<feColorMatrix type="matrix" values="0 0 0 0 0 0 0 0 0 0 0 0 0 0 0 0 0 0 0.25 0"/>
<feBlend mode="normal" in2="BackgroundImageFix" result="effect1_dropShadow_4_157"/>
<feBlend mode="normal" in="SourceGraphic" in2="effect1_dropShadow_4_157" result="shape"/>
</filter>
<filter id="filter9_d_4_157" x="31.096" y="25.184" width="25.76" height="28.768" filterUnits="userSpaceOnUse" color-interpolation-filters="sRGB">
<feFlood flood-opacity="0" result="BackgroundImageFix"/>
<feColorMatrix in="SourceAlpha" type="matrix" values="0 0 0 0 0 0 0 0 0 0 0 0 0 0 0 0 0 0 127 0" result="hardAlpha"/>
<feOffset dy="4"/>
<feGaussianBlur stdDeviation="2"/>
<feComposite in2="hardAlpha" operator="out"/>
<feColorMatrix type="matrix" values="0 0 0 0 0 0 0 0 0 0 0 0 0 0 0 0 0 0 0.25 0"/>
<feBlend mode="normal" in2="BackgroundImageFix" result="effect1_dropShadow_4_157"/>
<feBlend mode="normal" in="SourceGraphic" in2="effect1_dropShadow_4_157" result="shape"/>
</filter>
<filter id="filter10_d_4_157" x="112.908" y="0" width="11.776" height="29.952" filterUnits="userSpaceOnUse" color-interpolation-filters="sRGB">
<feFlood flood-opacity="0" result="BackgroundImageFix"/>
<feColorMatrix in="SourceAlpha" type="matrix" values="0 0 0 0 0 0 0 0 0 0 0 0 0 0 0 0 0 0 127 0" result="hardAlpha"/>
<feOffset dy="4"/>
<feGaussianBlur stdDeviation="2"/>
<feComposite in2="hardAlpha" operator="out"/>
<feColorMatrix type="matrix" values="0 0 0 0 0 0 0 0 0 0 0 0 0 0 0 0 0 0 0.25 0"/>
<feBlend mode="normal" in2="BackgroundImageFix" result="effect1_dropShadow_4_157"/>
<feBlend mode="normal" in="SourceGraphic" in2="effect1_dropShadow_4_157" result="shape"/>
</filter>
<filter id="filter11_d_4_157" x="94.5737" y="5.984" width="22.4" height="24.416" filterUnits="userSpaceOnUse" color-interpolation-filters="sRGB">
<feFlood flood-opacity="0" result="BackgroundImageFix"/>
<feColorMatrix in="SourceAlpha" type="matrix" values="0 0 0 0 0 0 0 0 0 0 0 0 0 0 0 0 0 0 127 0" result="hardAlpha"/>
<feOffset dy="4"/>
<feGaussianBlur stdDeviation="2"/>
<feComposite in2="hardAlpha" operator="out"/>
<feColorMatrix type="matrix" values="0 0 0 0 0 0 0 0 0 0 0 0 0 0 0 0 0 0 0.25 0"/>
<feBlend mode="normal" in2="BackgroundImageFix" result="effect1_dropShadow_4_157"/>
<feBlend mode="normal" in="SourceGraphic" in2="effect1_dropShadow_4_157" result="shape"/>
</filter>
<filter id="filter12_d_4_157" x="78.9803" y="5.984" width="21.888" height="24.416" filterUnits="userSpaceOnUse" color-interpolation-filters="sRGB">
<feFlood flood-opacity="0" result="BackgroundImageFix"/>
<feColorMatrix in="SourceAlpha" type="matrix" values="0 0 0 0 0 0 0 0 0 0 0 0 0 0 0 0 0 0 127 0" result="hardAlpha"/>
<feOffset dy="4"/>
<feGaussianBlur stdDeviation="2"/>
<feComposite in2="hardAlpha" operator="out"/>
<feColorMatrix type="matrix" values="0 0 0 0 0 0 0 0 0 0 0 0 0 0 0 0 0 0 0.25 0"/>
<feBlend mode="normal" in2="BackgroundImageFix" result="effect1_dropShadow_4_157"/>
<feBlend mode="normal" in="SourceGraphic" in2="effect1_dropShadow_4_157" result="shape"/>
</filter>
<filter id="filter13_d_4_157" x="63.7692" y="5.984" width="21.728" height="24.416" filterUnits="userSpaceOnUse" color-interpolation-filters="sRGB">
<feFlood flood-opacity="0" result="BackgroundImageFix"/>
<feColorMatrix in="SourceAlpha" type="matrix" values="0 0 0 0 0 0 0 0 0 0 0 0 0 0 0 0 0 0 127 0" result="hardAlpha"/>
<feOffset dy="4"/>
<feGaussianBlur stdDeviation="2"/>
<feComposite in2="hardAlpha" operator="out"/>
<feColorMatrix type="matrix" values="0 0 0 0 0 0 0 0 0 0 0 0 0 0 0 0 0 0 0.25 0"/>
<feBlend mode="normal" in2="BackgroundImageFix" result="effect1_dropShadow_4_157"/>
<feBlend mode="normal" in="SourceGraphic" in2="effect1_dropShadow_4_157" result="shape"/>
</filter>
<filter id="filter14_d_4_157" x="46.8425" y="5.984" width="22.4" height="24.416" filterUnits="userSpaceOnUse" color-interpolation-filters="sRGB">
<feFlood flood-opacity="0" result="BackgroundImageFix"/>
<feColorMatrix in="SourceAlpha" type="matrix" values="0 0 0 0 0 0 0 0 0 0 0 0 0 0 0 0 0 0 127 0" result="hardAlpha"/>
<feOffset dy="4"/>
<feGaussianBlur stdDeviation="2"/>
<feComposite in2="hardAlpha" operator="out"/>
<feColorMatrix type="matrix" values="0 0 0 0 0 0 0 0 0 0 0 0 0 0 0 0 0 0 0.25 0"/>
<feBlend mode="normal" in2="BackgroundImageFix" result="effect1_dropShadow_4_157"/>
<feBlend mode="normal" in="SourceGraphic" in2="effect1_dropShadow_4_157" result="shape"/>
</filter>
<filter id="filter15_d_4_157" x="31" y="1.184" width="22.752" height="28.768" filterUnits="userSpaceOnUse" color-interpolation-filters="sRGB">
<feFlood flood-opacity="0" result="BackgroundImageFix"/>
<feColorMatrix in="SourceAlpha" type="matrix" values="0 0 0 0 0 0 0 0 0 0 0 0 0 0 0 0 0 0 127 0" result="hardAlpha"/>
<feOffset dy="4"/>
<feGaussianBlur stdDeviation="2"/>
<feComposite in2="hardAlpha" operator="out"/>
<feColorMatrix type="matrix" values="0 0 0 0 0 0 0 0 0 0 0 0 0 0 0 0 0 0 0.25 0"/>
<feBlend mode="normal" in2="BackgroundImageFix" result="effect1_dropShadow_4_157"/>
<feBlend mode="normal" in="SourceGraphic" in2="effect1_dropShadow_4_157" result="shape"/>
</filter>
<filter id="filter16_d_4_157" x="0" y="1" width="35" height="29" filterUnits="userSpaceOnUse" color-interpolation-filters="sRGB">
<feFlood flood-opacity="0" result="BackgroundImageFix"/>
<feColorMatrix in="SourceAlpha" type="matrix" values="0 0 0 0 0 0 0 0 0 0 0 0 0 0 0 0 0 0 127 0" result="hardAlpha"/>
<feOffset dy="4"/>
<feGaussianBlur stdDeviation="2"/>
<feComposite in2="hardAlpha" operator="out"/>
<feColorMatrix type="matrix" values="0 0 0 0 0 0 0 0 0 0 0 0 0 0 0 0 0 0 0.25 0"/>
<feBlend mode="normal" in2="BackgroundImageFix" result="effect1_dropShadow_4_157"/>
<feBlend mode="normal" in="SourceGraphic" in2="effect1_dropShadow_4_157" result="shape"/>
</filter>
<filter id="filter17_d_4_157" x="0" y="22" width="35" height="32" filterUnits="userSpaceOnUse" color-interpolation-filters="sRGB">
<feFlood flood-opacity="0" result="BackgroundImageFix"/>
<feColorMatrix in="SourceAlpha" type="matrix" values="0 0 0 0 0 0 0 0 0 0 0 0 0 0 0 0 0 0 127 0" result="hardAlpha"/>
<feOffset dy="4"/>
<feGaussianBlur stdDeviation="2"/>
<feComposite in2="hardAlpha" operator="out"/>
<feColorMatrix type="matrix" values="0 0 0 0 0 0 0 0 0 0 0 0 0 0 0 0 0 0 0.25 0"/>
<feBlend mode="normal" in2="BackgroundImageFix" result="effect1_dropShadow_4_157"/>
<feBlend mode="normal" in="SourceGraphic" in2="effect1_dropShadow_4_157" result="shape"/>
</filter>
</defs>
</svg>
