<svg width="32" height="32" viewBox="0 0 32 32" fill="none" xmlns="http://www.w3.org/2000/svg">
<mask id="mask0_3296_3887" style="mask-type:alpha" maskUnits="userSpaceOnUse" x="0" y="0" width="32" height="32">
<rect width="32" height="32" fill="#D9D9D9"/>
</mask>
<g mask="url(#mask0_3296_3887)">
<path d="M14.5748 17.3559L12.3081 15.0336C12.0935 14.804 11.8287 14.6893 11.5138 14.6893C11.1989 14.6893 10.923 14.8004 10.6861 15.0226C10.4564 15.2521 10.3415 15.5261 10.3415 15.8446C10.3415 16.1633 10.4564 16.4374 10.6861 16.6669L13.7971 19.7559C14.0194 19.9781 14.2786 20.0893 14.5748 20.0893C14.8712 20.0893 15.1306 19.9781 15.3528 19.7559L21.3081 13.8226C21.5304 13.6004 21.6397 13.3337 21.6361 13.0226C21.6324 12.7115 21.5157 12.4448 21.2861 12.2226C21.0639 12.015 20.799 11.9131 20.4915 11.9169C20.1841 11.9207 19.9268 12.0263 19.7195 12.2336L14.5748 17.3559ZM10.9971 29.1336L8.9748 25.6893L4.99714 24.8669C4.72314 24.8151 4.49725 24.6688 4.31947 24.4279C4.14169 24.1873 4.07503 23.9299 4.11947 23.6559L4.5528 19.7336L1.9638 16.7336C1.77114 16.5336 1.6748 16.2891 1.6748 16.0003C1.6748 15.7114 1.77114 15.4669 1.9638 15.2669L4.5528 12.2893L4.11947 8.36692C4.07503 8.09292 4.14169 7.83548 4.31947 7.59459C4.49725 7.35392 4.72314 7.2077 4.99714 7.15592L8.9748 6.33359L10.9971 2.86692C11.1454 2.62248 11.3528 2.45392 11.6195 2.36126C11.8861 2.26881 12.1528 2.28181 12.4195 2.40026L15.9971 4.02259L19.5748 2.40026C19.8415 2.28181 20.1081 2.26514 20.3748 2.35026C20.6415 2.43537 20.8489 2.60014 20.9971 2.84459L23.0415 6.33359L26.9971 7.15592C27.2711 7.2077 27.497 7.35392 27.6748 7.59459C27.8526 7.83548 27.9192 8.09292 27.8748 8.36692L27.4415 12.2893L30.0305 15.2669C30.2231 15.4669 30.3195 15.7114 30.3195 16.0003C30.3195 16.2891 30.2231 16.5336 30.0305 16.7336L27.4415 19.7336L27.8748 23.6559C27.9192 23.9299 27.8526 24.1873 27.6748 24.4279C27.497 24.6688 27.2711 24.8151 26.9971 24.8669L23.0415 25.6893L20.9971 29.1559C20.8489 29.4004 20.6415 29.5651 20.3748 29.6503C20.1081 29.7354 19.8415 29.7187 19.5748 29.6003L15.9971 27.9779L12.4195 29.6003C12.1528 29.7187 11.8861 29.7317 11.6195 29.6393C11.3528 29.5466 11.1454 29.378 10.9971 29.1336Z" fill="#3DCFB6"/>
</g>
</svg>
